<?xml version="1.0" encoding="UTF-8" standalone="no"?>
<!-- Created with Inkscape (http://www.inkscape.org/) -->

<svg
   width="48"
   height="48"
   viewBox="0 0 12.7 12.7"
   version="1.1"
   id="svg5"
   inkscape:version="1.1.1 (3bf5ae0d25, 2021-09-20)"
   sodipodi:docname="Bierglas99.svg"
   xmlns:inkscape="http://www.inkscape.org/namespaces/inkscape"
   xmlns:sodipodi="http://sodipodi.sourceforge.net/DTD/sodipodi-0.dtd"
   xmlns="http://www.w3.org/2000/svg"
   xmlns:svg="http://www.w3.org/2000/svg">
  <sodipodi:namedview
     id="namedview7"
     pagecolor="#ffffff"
     bordercolor="#111111"
     borderopacity="1"
     inkscape:pageshadow="0"
     inkscape:pageopacity="0"
     inkscape:pagecheckerboard="1"
     inkscape:document-units="mm"
     showgrid="false"
     units="px"
     inkscape:zoom="2.9362514"
     inkscape:cx="141.16639"
     inkscape:cy="113.58019"
     inkscape:window-width="1920"
     inkscape:window-height="1009"
     inkscape:window-x="1912"
     inkscape:window-y="-8"
     inkscape:window-maximized="1"
     inkscape:current-layer="layer1" />
  <defs
     id="defs2" />
  <g
     inkscape:label="Ebene 1"
     inkscape:groupmode="layer"
     id="layer1">
    <g
       id="g1078"
       transform="matrix(0.10804242,0,0,0.09412419,2.3254493,3.7968284)">
      <path
         style="fill:#e9e1c1;stroke-width:0.352778"
         d="M 10.194937,78.522001 C 5.5215703,77.266155 1.7389847,73.763823 0.12963753,69.202445 -0.22796343,68.188897 -1.6772335,54.960348 -3.9848323,31.646673 -7.891485,-7.8222486 -7.8310921,-6.499025 -5.9166819,-10.680648 c 1.0373708,-2.265916 4.0140319,-5.412048 6.15292217,-6.503229 3.43214603,-1.75095 4.14269873,-1.801095 25.45828973,-1.79662 21.599561,0.0045 21.836088,0.02275 25.387223,1.955525 3.798559,2.067435 6.852355,6.671855 7.306454,11.0164559 l 0.229242,2.1932762 4.447664,0.00863 c 2.446214,0.00474 5.14429,0.1692233 5.995726,0.3655109 4.231587,0.9755378 8.871007,4.5501976 10.93748,8.427293 1.885209,3.5370169 2.14248,5.636095 2.14248,17.480516 0,11.496622 -0.257073,13.812252 -1.89144,17.037526 -1.285578,2.536963 -4.415394,5.766611 -6.841475,7.059697 -3.49758,1.864189 -5.427702,2.18472 -13.155669,2.18472 h -6.935936 l -0.251721,3.263194 c -0.138444,1.794757 -0.550097,6.18018 -0.914785,9.745384 -0.577613,5.64685 -0.798124,6.770807 -1.71112,8.721841 -1.886747,4.031887 -5.398774,6.975348 -9.684142,8.116369 -2.703957,0.719956 -27.831841,0.659574 -30.559574,-0.07344 z m 31.302711,-7.571249 c 0.646914,-0.225517 1.221479,-0.754295 1.437475,-1.322917 C 43.13302,69.10685 44.817386,55.424967 46.678162,39.223648 48.538938,23.022329 50.152215,9.1713918 50.263227,8.4437876 L 50.465069,7.120871 H 25.739615 1.0141618 v 0.9884579 c 0,2.6621401 7.113252,61.6268231 7.4890225,62.0795991 0.2331903,0.280977 0.7469935,0.641795 1.1417853,0.801822 1.1014224,0.446447 30.5633814,0.409451 31.8526784,-0.04 z M 68.047443,36.805674 c 0.67607,-0.359749 1.587256,-1.272561 2.024856,-2.028472 0.786123,-1.357948 0.794561,-1.509423 0.705556,-12.663276 C 70.688591,10.927653 70.680305,10.814567 69.86621,9.6731867 68.44901,7.6862361 67.344604,7.3306922 62.132912,7.1835846 c -3.389221,-0.095665 -4.674306,-0.019323 -4.674306,0.2776845 0,0.2252927 -0.635,6.9179879 -1.411111,14.8726559 -0.776111,7.95467 -1.411111,14.612165 -1.411111,14.794435 0,0.193883 2.527427,0.331399 6.09092,0.331399 5.25399,0 6.259823,-0.08988 7.320139,-0.654085 z"
         id="path1090" />
      <path
         style="fill:#e8d4a2;stroke-width:0.352778"
         d="m 17.883279,71.062131 c 4.330307,-0.05616 11.315308,-0.05609 15.522222,1.45e-4 4.206918,0.05624 0.663939,0.102192 -7.873284,0.102111 -8.537222,-8.1e-5 -11.979244,-0.0461 -7.648938,-0.102256 z"
         id="path1088" />
      <path
         style="fill:#f1ba62;stroke-width:0.352778"
         d="m 15.520596,59.095574 c -0.677703,-0.341923 -1.384106,-1.06771 -1.636927,-1.681847 -0.244612,-0.594198 -1.184922,-9.525529 -2.089576,-19.847401 -1.538384,-17.552546 -1.60835,-18.837585 -1.08116,-19.85706 1.231631,-2.381711 4.5924,-2.738181 6.331352,-0.671554 0.496766,0.590373 0.902207,1.25966 0.900981,1.487311 -0.0012,0.227647 0.728247,8.668903 1.62105,18.758347 1.090335,12.32172 1.525398,18.738723 1.325146,19.54536 -0.553873,2.231069 -3.215343,3.354377 -5.370866,2.266844 z M 13.299051,7.2091836 c 6.853702,-0.053568 17.966204,-0.05354 24.694445,6.24e-5 6.728241,0.053602 1.120666,0.09743 -12.461279,0.097396 C 11.950273,7.3066081 6.4453479,7.262752 13.299051,7.2091836 Z"
         id="path1086" />
      <path
         style="fill:#ebb24f;stroke-width:0.352778"
         d="m 13.064308,54.040314 c 0,-0.485069 0.08007,-0.683507 0.177936,-0.440972 0.09787,0.242535 0.09787,0.63941 0,0.881945 -0.09786,0.242534 -0.177936,0.0441 -0.177936,-0.440973 z m 7.761111,-1.763889 c 0,-0.485069 0.08007,-0.683506 0.177936,-0.440972 0.09787,0.242535 0.09787,0.63941 0,0.881945 -0.09786,0.242534 -0.177936,0.0441 -0.177936,-0.440973 z M 12.71153,50.159759 c 0,-0.48507 0.08007,-0.683507 0.177937,-0.440972 0.09786,0.242534 0.09786,0.639409 0,0.881944 -0.09787,0.242535 -0.177937,0.0441 -0.177937,-0.440972 z m 7.761111,-1.763889 c 0,-0.485069 0.08007,-0.683507 0.177937,-0.440972 0.09786,0.242535 0.09786,0.63941 0,0.881944 -0.09787,0.242535 -0.177937,0.0441 -0.177937,-0.440972 z m -8.100817,-2.293055 c 0.0072,-0.582084 0.08625,-0.777502 0.175699,-0.434259 0.08944,0.343242 0.08356,0.819492 -0.01307,1.058333 -0.09663,0.238841 -0.169817,-0.04199 -0.162629,-0.624074 z m 7.761111,-1.763889 c 0.0072,-0.582084 0.08625,-0.777501 0.175699,-0.434259 0.08944,0.343242 0.08356,0.819492 -0.01307,1.058333 -0.09664,0.238841 -0.169817,-0.04199 -0.162628,-0.624074 z m -8.12696,-2.293056 c 0,-0.485069 0.08007,-0.683507 0.177936,-0.440972 0.09787,0.242535 0.09787,0.63941 0,0.881944 -0.09787,0.242535 -0.177936,0.0441 -0.177936,-0.440972 z m 7.761111,-1.763889 c 0,-0.485069 0.08007,-0.683507 0.177936,-0.440972 0.09786,0.242535 0.09786,0.63941 0,0.881945 -0.09787,0.242534 -0.177936,0.0441 -0.177936,-0.440973 z m -8.100817,-2.293055 c 0.0072,-0.582083 0.08625,-0.777501 0.175698,-0.434259 0.08944,0.343242 0.08356,0.819492 -0.01307,1.058333 -0.09664,0.238841 -0.169818,-0.04199 -0.162628,-0.624074 z m 7.761111,-1.763889 c 0.0072,-0.582083 0.08625,-0.777501 0.175698,-0.434259 0.08944,0.343242 0.08356,0.819492 -0.01307,1.058333 -0.09664,0.238842 -0.169818,-0.04199 -0.162628,-0.624074 z m -8.126961,-2.293056 c 0,-0.485069 0.08007,-0.683506 0.177936,-0.440972 0.09786,0.242535 0.09786,0.63941 0,0.881945 -0.09787,0.242534 -0.177936,0.0441 -0.177936,-0.440973 z m 7.761111,-1.763888 c 0,-0.48507 0.08007,-0.683507 0.177936,-0.440973 0.09786,0.242535 0.09786,0.63941 0,0.881945 -0.09786,0.242535 -0.177936,0.0441 -0.177936,-0.440972 z m -8.113889,-2.116667 c 0,-0.485069 0.08007,-0.683507 0.177937,-0.440972 0.09786,0.242535 0.09786,0.639409 0,0.881944 -0.09787,0.242535 -0.177937,0.0441 -0.177937,-0.440972 z m 7.761112,-1.763889 c 0,-0.485069 0.08007,-0.683507 0.177936,-0.440972 0.09786,0.242535 0.09786,0.63941 0,0.881944 -0.09786,0.242535 -0.177936,0.0441 -0.177936,-0.440972 z m -8.100818,-2.293055 c 0.0072,-0.582084 0.08625,-0.777501 0.175699,-0.434259 0.08944,0.343242 0.08356,0.819492 -0.01307,1.058333 -0.09663,0.238841 -0.169817,-0.04199 -0.162629,-0.624074 z m 7.761112,-1.763889 c 0.0072,-0.582084 0.08625,-0.777501 0.175698,-0.434259 0.08944,0.343242 0.08356,0.819492 -0.01307,1.058333 -0.09663,0.238841 -0.169817,-0.04199 -0.162627,-0.624074 z m -8.126961,-2.293056 c 0,-0.485069 0.08007,-0.683507 0.177936,-0.440972 0.09787,0.242535 0.09787,0.63941 0,0.881945 -0.09786,0.242534 -0.177936,0.0441 -0.177936,-0.440973 z m 7.761111,-1.763889 c 0,-0.485069 0.08007,-0.683506 0.177936,-0.440972 0.09787,0.242535 0.09787,0.63941 0,0.881945 -0.09786,0.242534 -0.177936,0.0441 -0.177936,-0.440973 z"
         id="path1084" />
      <path
         style="fill:#e6a530;stroke-width:0.352778"
         d="m 19.887773,58.626425 c 0.351185,-0.388055 0.717894,-0.705555 0.814908,-0.705555 0.09701,0 -0.110945,0.3175 -0.46213,0.705555 -0.351186,0.388056 -0.717894,0.705556 -0.814908,0.705556 -0.09701,0 0.110945,-0.3175 0.46213,-0.705556 z m 1.323687,-3.351388 c 0.0039,-0.776112 0.07616,-1.052072 0.160541,-0.613248 0.08438,0.438824 0.08118,1.073824 -0.0071,1.411111 -0.0883,0.337287 -0.157338,-0.02175 -0.153422,-0.797863 z m -8.147152,0.176388 c 0,-0.485069 0.08007,-0.683507 0.177936,-0.440972 0.09787,0.242535 0.09787,0.63941 0,0.881945 -0.09786,0.242534 -0.177936,0.0441 -0.177936,-0.440973 z M 12.71153,51.57087 c 0,-0.485069 0.08007,-0.683507 0.177937,-0.440972 0.09786,0.242534 0.09786,0.639409 0,0.881944 -0.09787,0.242535 -0.177937,0.0441 -0.177937,-0.440972 z m 8.113889,-0.705556 c 0,-0.485069 0.08007,-0.683507 0.177936,-0.440972 0.09787,0.242535 0.09787,0.63941 0,0.881945 -0.09786,0.242534 -0.177936,0.0441 -0.177936,-0.440973 z m -8.494518,-3.380785 c 0.01693,-0.410969 0.100521,-0.49456 0.213137,-0.213138 0.101907,0.25466 0.08937,0.55893 -0.02785,0.676158 -0.117225,0.117225 -0.200604,-0.09114 -0.185287,-0.46302 z m 8.14174,-0.49977 c 0,-0.485069 0.08007,-0.683507 0.177937,-0.440972 0.09786,0.242534 0.09786,0.639409 0,0.881944 -0.09787,0.242535 -0.177937,0.0441 -0.177937,-0.440972 z m -8.466666,-3.527778 c 0,-0.485069 0.08007,-0.683507 0.177936,-0.440972 0.09787,0.242535 0.09787,0.63941 0,0.881944 -0.09787,0.242535 -0.177936,0.0441 -0.177936,-0.440972 z m 8.113889,-0.705555 c 0,-0.48507 0.08007,-0.683507 0.177936,-0.440972 0.09787,0.242534 0.09787,0.639409 0,0.881944 -0.09786,0.242535 -0.177936,0.0441 -0.177936,-0.440972 z m -8.466667,-3.175 c 0,-0.48507 0.08007,-0.683507 0.177936,-0.440972 0.09787,0.242534 0.09787,0.639409 0,0.881944 -0.09786,0.242535 -0.177936,0.0441 -0.177936,-0.440972 z m 8.113889,-0.705556 c 0,-0.485069 0.08007,-0.683507 0.177936,-0.440972 0.09786,0.242535 0.09786,0.63941 0,0.881944 -0.09787,0.242535 -0.177936,0.0441 -0.177936,-0.440972 z m -8.466667,-3.527777 c 0,-0.48507 0.08007,-0.683507 0.177936,-0.440973 0.09786,0.242535 0.09786,0.63941 0,0.881945 -0.09787,0.242534 -0.177936,0.0441 -0.177936,-0.440972 z m 8.113889,-0.705556 c 0,-0.485069 0.08007,-0.683507 0.177936,-0.440972 0.09786,0.242535 0.09786,0.63941 0,0.881944 -0.09787,0.242535 -0.177936,0.0441 -0.177936,-0.440972 z m -8.466667,-3.175 c 0,-0.485069 0.08007,-0.683507 0.177937,-0.440972 0.09786,0.242535 0.09786,0.63941 0,0.881944 -0.09787,0.242535 -0.177937,0.0441 -0.177937,-0.440972 z m 8.113889,-0.705555 c 0,-0.48507 0.08007,-0.683507 0.177936,-0.440973 0.09786,0.242535 0.09786,0.63941 0,0.881945 -0.09786,0.242534 -0.177936,0.0441 -0.177936,-0.440972 z m -8.494517,-3.380786 c 0.01693,-0.410969 0.10052,-0.494559 0.213136,-0.213138 0.101908,0.25466 0.08937,0.558931 -0.02785,0.676159 -0.117225,0.117224 -0.200603,-0.09114 -0.185286,-0.463021 z m 8.14174,-0.49977 c 0,-0.485069 0.08007,-0.683507 0.177936,-0.440972 0.09786,0.242535 0.09786,0.63941 0,0.881944 -0.09786,0.242535 -0.177936,0.0441 -0.177936,-0.440972 z m -8.466667,-3.527778 c 0,-0.485069 0.08007,-0.683507 0.177936,-0.440972 0.09787,0.242535 0.09787,0.63941 0,0.881945 -0.09786,0.242534 -0.177936,0.0441 -0.177936,-0.440973 z m 8.113889,-0.705555 c 0,-0.48507 0.08007,-0.683507 0.177936,-0.440972 0.09786,0.242534 0.09786,0.639409 0,0.881944 -0.09786,0.242535 -0.177936,0.0441 -0.177936,-0.440972 z M 9.861457,19.615085 c 0.016926,-0.410969 0.1005209,-0.494559 0.213137,-0.213138 0.101907,0.25466 0.08937,0.558931 -0.02785,0.676159 C 9.9295187,20.19533 9.84614,19.986966 9.861457,19.615085 Z m 1.206871,-2.969214 c 0.351186,-0.388056 0.717894,-0.705556 0.814908,-0.705556 0.09701,0 -0.110944,0.3175 -0.46213,0.705556 -0.351185,0.388055 -0.717894,0.705555 -0.814908,0.705555 -0.09701,0 0.110945,-0.3175 0.46213,-0.705555 z m 2.557639,-1.291972 c 0.242535,-0.09786 0.63941,-0.09786 0.881945,0 0.242535,0.09787 0.0441,0.177937 -0.440972,0.177937 -0.48507,0 -0.683507,-0.08007 -0.440973,-0.177937 z"
         id="path1082" />
      <path
         style="fill:#e49f23;stroke-width:0.352778"
         d="M 9.1524725,70.356286 C 8.4416965,69.778376 8.1618961,67.755051 4.7740427,38.694481 L 1.1549113,7.6500376 25.482568,7.5594115 c 13.380211,-0.049844 24.379837,-0.038447 24.443608,0.025326 0.06377,0.063775 -1.469714,13.7138655 -3.407752,30.3335365 -1.938038,16.619669 -3.523707,30.466425 -3.523707,30.770569 0,0.304141 -0.38966,0.942644 -0.86591,1.418894 l -0.865908,0.86591 H 25.587335 c -14.404667,0 -15.7371245,-0.05005 -16.4348625,-0.617361 z M 19.670154,59.109487 c 1.957991,-1.37143 1.957158,-1.275834 0.187993,-21.557886 -1.215818,-13.938387 -1.770341,-18.922756 -2.208071,-19.847397 -1.537896,-3.248576 -6.460165,-2.944516 -7.398443,0.45702 -0.214081,0.776104 0.21043,7.063426 1.354219,20.056969 1.758644,19.978359 1.757795,19.973413 3.604576,20.999054 1.129642,0.627366 3.491671,0.570293 4.459726,-0.10776 z"
         id="path1080" />
    </g>
  </g>
</svg>
