<svg width="48" height="48" inkscape:version="1.1.1 (3bf5ae0d25, 2021-09-20)" sodipodi:docname="cocktailIcon.svg" version="1.1" viewBox="0 0 12.7 12.7" xmlns="http://www.w3.org/2000/svg" xmlns:inkscape="http://www.inkscape.org/namespaces/inkscape" xmlns:sodipodi="http://sodipodi.sourceforge.net/DTD/sodipodi-0.dtd">
 <sodipodi:namedview bordercolor="#111111" borderopacity="1" inkscape:current-layer="layer1" inkscape:cx="141.16639" inkscape:cy="86.334569" inkscape:document-units="mm" inkscape:pagecheckerboard="1" inkscape:pageopacity="0" inkscape:pageshadow="0" inkscape:window-height="1009" inkscape:window-maximized="1" inkscape:window-width="1920" inkscape:window-x="1912" inkscape:window-y="-8" inkscape:zoom="2.9362514" pagecolor="#ffffff" showgrid="false" units="px"/>
 <g inkscape:groupmode="layer" inkscape:label="Ebene 1">
  <g transform="matrix(.1268 0 0 .097462 1.5425 3.7316)" stroke-width=".35278">
   <path d="m31.361 83.815c-11.057-1.1299-16.047-4.1884-14.497-8.8858 1.0363-3.14 5.5227-4.8391 14.271-5.4047l3.7452-0.24213-0.0046-1.271c-0.0062-1.6839-1.2142-7.4821-1.8138-8.7056-0.37296-0.76103-0.92838-1.0923-2.5914-1.5455-7.4217-2.0226-11.483-7.7402-13.417-18.889-0.33288-1.919-0.74297-8.2074-1.0367-15.896-0.55761-14.598-0.54753-14.546-3.8854-20.063-2.4092-3.9819-2.6228-5.3292-1.0883-6.8618 1.0791-1.0777 1.7207-1.0937 9.373-0.23356 8.7807 0.98699 22.265 1.4339 28.304 0.93808 6.0609-0.49769 13.66-1.3994 14.103-1.6735 0.52492-0.32442 2.7331 0.60931 3.2768 1.3856 0.9513 1.3582 0.66736 2.9837-0.83573 4.7844-1.3566 1.6252-2.8635 3.9014-2.866 4.3292-7.05e-4 0.12283 0.67337-0.011402 1.498-0.29828 1.0416-0.36238 2.4685-0.47952 4.6743-0.38373 2.7771 0.12059 3.4501 0.28507 5.3704 1.3125 5.8032 3.105 8.9075 9.4054 8.4442 17.138-0.66476 11.094-6.4786 19.36-14.173 20.15-2.3986 0.24623-5.9062-0.49129-7.8827-1.6574-0.65817-0.38833-1.2385-0.65991-1.2897-0.60352-0.05117 0.05639-0.36392 1.8439-0.69498 3.9722-0.33107 2.1283-0.90949 4.6917-1.2854 5.6963-1.2823 3.4274-4.422 6.0282-8.6401 7.1572-1.3045 0.34917-1.4954 0.543-1.8586 1.8871-0.71731 2.6548-1.0973 5.2459-1.0973 7.4823v2.1839l3.4396 0.44189c5.4289 0.69746 11.775 2.1333 12.868 2.9116 2.6899 1.9154 2.7142 5.9357 0.0485 8.0325-0.51952 0.40865-1.753 0.97535-2.7411 1.2593-4.713 1.3545-20.824 2.257-27.718 1.5526zm14.432-31.907c3.1196-0.73532 4.4448-1.6282 5.102-3.4376 1.354-3.7278 2.5207-17.485 2.1157-24.945-0.23664-4.3587 0.27439-10.912 1.1004-14.111 0.27553-1.0672 0.91189-2.9504 1.4141-4.1849 0.50224-1.2346 0.82015-2.3377 0.70647-2.4513-0.11369-0.11368-2.8607 0.079848-6.1044 0.43007-5.2542 0.56729-6.8215 0.59294-14.364 0.23507-11.473-0.54433-15.089-0.75813-15.61-0.92294-0.50564-0.15978-0.58295 0.2442-0.14125 0.7381 0.67024 0.74943 1.4564 3.4422 1.8143 6.2145 0.20876 1.617 0.53227 7.5987 0.71891 13.293 0.36684 11.192 0.95685 16.397 2.3208 20.477 1.5097 4.5154 3.2089 6.7415 5.9603 7.8085 3.6196 1.4037 10.884 1.8197 14.967 0.85723zm23.927-15.726c3.9936-1.9332 7.0662-11.346 5.7583-17.639-0.8843-4.2549-4.0163-7.189-7.6183-7.137-2.2238 0.03214-6.055 1.7633-7.3756 3.3327l-0.90901 1.0803v15.683l1.0164 1.6027c2.2093 3.4838 5.7933 4.6922 9.1283 3.0778zm-71.368-25.092-1.3945-1.4993 1.4993 1.3945c0.82462 0.76698 1.4993 1.4417 1.4993 1.4993 0 0.2669-0.30722-1.73e-4 -1.6041-1.3945zm-6.1292-11.759c0.016928-0.41097 0.10052-0.49456 0.21314-0.21314 0.10191 0.25466 0.089374 0.55893-0.027851 0.67616-0.11723 0.11722-0.2006-0.091134-0.18529-0.46302zm0-5.9972c0.016928-0.41097 0.10052-0.49456 0.21314-0.21314 0.10191 0.25466 0.089374 0.55893-0.027851 0.67616-0.11723 0.11722-0.2006-0.091135-0.18529-0.46302zm5.6166-10.907c0.65821-0.6791 1.2761-1.2347 1.3731-1.2347 0.097014 0-0.36214 0.55562-1.0204 1.2347-0.65821 0.6791-1.2761 1.2347-1.3731 1.2347-0.097014 0 0.36214-0.55562 1.0204-1.2347z" fill="#e9e1c1"/>
   <path d="m11.157 17.294c0.24254-0.09786 0.63941-0.09786 0.88194 0 0.24254 0.09786 0.0441 0.17794-0.44097 0.17794-0.48507 0-0.68351-0.08007-0.44097-0.17794zm3.9026-0.0073c0.25466-0.10191 0.55893-0.08938 0.67616 0.02783 0.11722 0.11723-0.09113 0.2006-0.46302 0.18529-0.41097-0.01693-0.49456-0.10052-0.21314-0.21313zm0.50789-3.1104c0.0039-0.77611 0.07616-1.0521 0.16054-0.61325 0.08438 0.43882 0.08118 1.0738-0.0071 1.4111-0.0883 0.33729-0.15734-0.02175-0.15342-0.79786zm-0.41389-3.616c-0.023313-0.66442-0.2262-0.79375-1.2452-0.79375-5.0617 0-9.8258-2.8869-11.869-7.1924-1.2356-2.6033-1.5691-5.1746-1.0544-8.1299 0.55769-3.2025 1.5012-5.2089 3.408-7.2474 2.4104-2.5769 4.5396-3.2874 9.322-3.1108 4.4396 0.16393 6.393 0.90049 8.8882 3.3514 1.9201 1.886 2.9932 4.1333 3.326 6.9654l0.23563 2.0048-2.2562-0.23085c-1.2409-0.12697-4.2081-0.44827-6.5939-0.714-4.551-0.50692-5.4376-0.39378-6.5445 0.83518-1.2247 1.3597-0.90156 2.8486 1.478 6.8101 2.1269 3.5409 3.4709 6.9179 3.1091 7.8121-0.09658 0.23869-0.18814 0.07679-0.20346-0.35977zm5.8119-5.2463c-0.35245-0.94659-0.77869-1.8719-0.9472-2.0562-0.39213-0.42893-0.39985-0.99899-0.010266-0.75821 0.16287 0.10066 1.4127 0.21119 2.7773 0.24563 2.8084 0.070874 2.8031-0.12509 0.07863 2.8955l-1.2577 1.3944zm8.1832-2.1464c0.43656-0.084086 1.1509-0.084086 1.5875 0 0.43656 0.084086 0.07937 0.15288-0.79375 0.15288-0.87312 0-1.2303-0.068797-0.79375-0.15288zm-36.926-4.8957c0.016928-0.41097 0.10052-0.49456 0.21314-0.21314 0.10191 0.25466 0.089374 0.55893-0.027851 0.67616-0.11723 0.11722-0.2006-0.091134-0.18529-0.46302zm36.573-1.8071c0.43656-0.084086 1.1509-0.084086 1.5875 0 0.43656 0.084086 0.07937 0.15288-0.79375 0.15288-0.87312 0-1.2303-0.068797-0.79375-0.15288zm-36.573-2.0735c0.016928-0.41097 0.10052-0.49456 0.21314-0.21314 0.10191 0.25466 0.089374 0.55893-0.027851 0.67616-0.11723 0.11722-0.2006-0.091134-0.18529-0.46302zm40.245-1.2053c0-0.48507 0.08007-0.68351 0.17794-0.44097 0.09786 0.24253 0.09786 0.63941 0 0.88194-0.09786 0.24253-0.17794 0.044097-0.17794-0.44097zm-5.5459-12.083-1.0361-1.1465 1.1465 1.0361c0.63059 0.56988 1.1465 1.0858 1.1465 1.1465 0 0.27254-0.29109 0.03258-1.2569-1.0361zm-15.412-5.0843c0.24253-0.09786 0.63941-0.09786 0.88194 0s0.0441 0.17794-0.44097 0.17794c-0.48507 0-0.68351-0.08007-0.44097-0.17794zm4.6082-0.0073c0.25466-0.10191 0.55893-0.08937 0.67616 0.02785 0.11722 0.11722-0.09113 0.2006-0.46302 0.18529-0.41097-0.01693-0.49456-0.10052-0.21314-0.21314z" fill="#f1b961"/>
   <path d="m52.195 40.253c0.01693-0.41097 0.10052-0.49456 0.21314-0.21314 0.10191 0.25466 0.08938 0.55893-0.02784 0.67616-0.11723 0.11722-0.2006-0.09114-0.18529-0.46302zm0.38063-3.6748c0-0.48507 0.08007-0.68351 0.17794-0.44097 0.09786 0.24254 0.09786 0.63941 0 0.88194s-0.17794 0.0441-0.17794-0.44097zm-29.661-3.028c0.01693-0.41097 0.10052-0.49456 0.21314-0.21314 0.10191 0.25466 0.08938 0.55893-0.02785 0.67616-0.11723 0.11722-0.2006-0.09114-0.18529-0.46302zm30.082-6.1442c0-1.6492 0.06077-2.3239 0.13504-1.4993 0.07427 0.82462 0.07427 2.174 0 2.9986s-0.13504 0.14993-0.13504-1.4993zm-30.353-0.88194c2e-3 -1.1642 0.06784-1.5979 0.14635-0.96382 0.07851 0.63406 0.0769 1.5866-0.0036 2.1167-0.08049 0.5301-0.14473 0.01132-0.14275-1.1528zm30.298-10.231c0.0072-0.58208 0.08625-0.7775 0.1757-0.43426 0.08944 0.34324 0.08356 0.81949-0.01309 1.0583-0.09664 0.23884-0.16982-0.04199-0.16263-0.62408zm-30.705-1.2347c0-0.48507 0.08007-0.68351 0.17794-0.44097 0.09786 0.24253 0.09786 0.63941 0 0.88194-0.09787 0.24254-0.17794 0.0441-0.17794-0.44097zm12.468-3.9196c-2.3283-0.16032-4.7561-0.38433-5.395-0.49782l-1.1617-0.20634 1.0283-1.8333c0.56558-1.0083 1.3087-2.5882 1.6513-3.5109l0.62294-1.6776 8.5932 0.090113c4.7263 0.049562 8.554 0.17868 8.5062 0.28692-0.04784 0.10824-1.1758 1.8942-2.5065 3.9687l-2.4195 3.7719-2.343-0.05018c-1.2886-0.02759-4.248-0.18134-6.5763-0.34165zm17.11 0.22734c0-0.1716 2.7086-4.4256 3.0094-4.7264 0.0947-0.094701 0.01972 0.29232-0.16664 0.86004-0.18635 0.56773-0.51145 1.7069-0.72245 2.5315-0.32083 1.2539-0.52575 1.4993-1.252 1.4993-0.47759 0-0.86835-0.07402-0.86835-0.16449zm-29.958-0.74686c0.01693-0.41097 0.10052-0.49456 0.21314-0.21314 0.10191 0.25466 0.08937 0.55893-0.02785 0.67616-0.11722 0.11722-0.2006-0.09114-0.18529-0.46302zm28.106-7.4362c0.24254-0.097865 0.63941-0.097865 0.88194 0s0.0441 0.17794-0.44097 0.17794c-0.48507 0-0.68351-0.080071-0.44097-0.17794zm3.3581-0.36361c0.34324-0.089444 0.81949-0.083562 1.0583 0.01307 0.23884 0.096634-0.04199 0.16982-0.62407 0.16263-0.58208-0.00719-0.7775-0.086253-0.43426-0.1757zm0.70556-6.7028c0.34324-0.089444 0.81949-0.083562 1.0583 0.013071 0.23884 0.096634-0.04199 0.16982-0.62408 0.16263-0.58208-0.00719-0.7775-0.086254-0.43426-0.1757zm2.9919-0.34194c0.24254-0.097865 0.63941-0.097865 0.88194 0 0.24254 0.097865 0.0441 0.17794-0.44097 0.17794-0.48507 0-0.68351-0.080071-0.44097-0.17794zm2.8222-0.35278c0.24254-0.097865 0.63941-0.097865 0.88194 0 0.24253 0.097865 0.0441 0.17794-0.44097 0.17794-0.48507 0-0.68351-0.080071-0.44097-0.17794zm5.2035-16.7c0.35119-0.38806 0.7179-0.70556 0.81491-0.70556 0.09701 0-0.11094 0.3175-0.46213 0.70556-0.35119 0.38806-0.7179 0.70556-0.81491 0.70556-0.09701 0 0.11094-0.3175 0.46213-0.70556z" fill="#b9ad7e"/>
   <path d="m10.681 17.176c-8.1509-1.1952-15.212-7.4804-17.636-15.7-0.82203-2.7864-0.82219-7.4432-3.483e-4 -10.231 2.0616-6.9921 7.8923-12.485 15.378-14.487 3.4007-0.90954 8.7165-0.83393 11.602 0.16502 7.2918 2.5247 11.8 8.7109 12.599 17.287l0.24319 2.6121-1.3739-0.22693c-0.75562-0.12481-2.2662-0.22868-3.3568-0.23081l-1.9829-0.00388-0.22954-2.0285c-0.45705-4.039-3.0833-7.6684-6.7408-9.3154-2.6408-1.1892-8.4117-1.354-11.163-0.31884-2.3458 0.88267-4.8951 3.3884-5.9492 5.8474-3.5805 8.3529 0.47175 17.07 8.751 18.825 1.0282 0.21793 2.4075 0.39624 3.0652 0.39624 1.3262 0 1.2628-0.18518 1.7661 5.1591 0.19143 2.0329 0.15584 2.1732-0.60281 2.3764-0.95921 0.25696-1.9514 0.22832-4.3686-0.1261zm13.53-7.0316c-1.9672-0.27436-2.2866-0.53687-2.4318-1.9982-0.0858-0.86413 0.20172-1.4435 1.3814-2.7837 0.81936-0.93084 1.4897-1.8516 1.4897-2.0462 0-0.34305 6.3048-0.062463 6.6639 0.29657 0.08759 0.087592-0.5891 1.6668-1.5038 3.5093-1.8538 3.7343-1.5746 3.5836-5.5995 3.0223z" fill="#e49f23"/>
   <path d="m36.931 52.212c0.25466-0.10191 0.55893-0.08938 0.67616 0.02783 0.11722 0.11722-0.09114 0.2006-0.46302 0.18529-0.41097-0.01693-0.49456-0.10052-0.21314-0.21313zm5.2696 0.0073c0.24254-0.09786 0.63941-0.09786 0.88194 0s0.0441 0.17794-0.44097 0.17794c-0.48507 0-0.68351-0.08007-0.44097-0.17794zm-13.582-10.714c-1.5355-0.61717-1.8008-2.0506-2.3159-12.512-0.31765-6.4522-0.3694-10.218-0.14923-10.859 0.36633-1.066 1.8583-2.0178 3.1632-2.0178 0.97732 0 2.2371 0.82084 2.7604 1.7985 0.32212 0.6019 1.3547 15.807 1.3831 20.365 0.01672 2.6924-2.3102 4.2424-4.8416 3.2249zm23.576-2.3113c0.01693-0.41097 0.10052-0.49456 0.21314-0.21314 0.10191 0.25466 0.08938 0.55893-0.02784 0.67616-0.11723 0.11722-0.2006-0.09114-0.18529-0.46302zm0.40677-4.3803c0-0.6791 0.0726-0.95691 0.16134-0.61736 0.08873 0.33955 0.08873 0.89517 0 1.2347s-0.16134 0.06174-0.16134-0.61736zm-29.646-2.6458c0.0072-0.58208 0.08625-0.7775 0.1757-0.43426 0.08944 0.34324 0.08356 0.81949-0.01307 1.0583-0.09664 0.23884-0.16982-0.04199-0.16263-0.62407zm29.592-0.73495c0.01693-0.41097 0.10052-0.49456 0.21313-0.21314 0.10191 0.25466 0.08938 0.55893-0.02783 0.67616-0.11723 0.11722-0.2006-0.09114-0.18529-0.46302zm-29.889-9.8484c-0.0011-1.7462 0.05858-2.5051 0.13257-1.6863 0.07399 0.81876 0.07487 2.2475 0.0019 3.175-0.07291 0.92748-0.13344 0.25759-0.13452-1.4887zm30.242-6.7322c0.01693-0.41097 0.10052-0.49456 0.21313-0.21314 0.10191 0.25466 0.08938 0.55893-0.02783 0.67616-0.11723 0.11722-0.2006-0.09114-0.18529-0.46302zm-30.651-1.3817c0.0072-0.58208 0.08625-0.7775 0.1757-0.43426 0.08945 0.34324 0.08356 0.81949-0.01307 1.0583-0.09664 0.23884-0.16982-0.04199-0.16263-0.62407zm30.976-1.2113c0-0.18114-0.43656-0.39548-0.97014-0.47631-0.90296-0.13679-0.89074-0.15062 0.17639-0.19982 0.80744-0.03722 1.1465 0.10364 1.1465 0.47631 0 0.29104-0.07937 0.52917-0.17639 0.52917-0.09701 0-0.17639-0.14821-0.17639-0.32935zm-16.669-0.97795c0.43656-0.08409 1.1509-0.08409 1.5875 0 0.43656 0.08408 0.07938 0.15288-0.79375 0.15288-0.87312 0-1.2303-0.0688-0.79375-0.15288zm-4.7558-0.34828c0.34324-0.08944 0.81949-0.08356 1.0583 0.01305 0.23884 0.09664-0.04199 0.16982-0.62408 0.16263-0.58208-0.0072-0.7775-0.08625-0.43426-0.1757zm-3.7109-0.34194c0.24254-0.09786 0.63941-0.09786 0.88194 0 0.24253 0.09787 0.0441 0.17794-0.44097 0.17794-0.48507 0-0.68351-0.08007-0.44097-0.17794z" fill="#d96551"/>
   <path d="m36.116 52.122c-5.8454-0.95518-8.013-2.2489-9.7901-5.8432-2.3458-4.7447-3.0343-9.0838-3.4424-21.696-0.17892-5.5298-0.43065-11.126-0.55941-12.436l-0.2341-2.3816 1.0158 0.16634c6.8565 1.1228 12.968 1.5892 20.948 1.5984 3.5895 0.0041 7.1148 0.10481 7.834 0.22371l1.3076 0.21618-0.16009 3.9251c-0.08805 2.1588-0.23131 7.8938-0.31835 12.745-0.23661 13.186-1.3206 20.235-3.3319 21.668-2.126 1.5139-9.1939 2.4804-13.269 1.8145zm-3.677-11.284c1.2252-1.2252 1.202-0.63165 0.51381-13.152-0.27413-4.9871-0.66796-9.3843-0.87518-9.7715-0.52324-0.97769-1.7831-1.7985-2.7604-1.7985-1.3048 0-2.7968 0.95174-3.1632 2.0178-0.51061 1.4859 0.48576 20.401 1.1533 21.894 0.9208 2.0591 3.4786 2.4627 5.1317 0.80965z" fill="#ce4226"/>
   <path d="m44.378 10.384c0.41064-0.63059 1.5684-2.441 2.5728-4.0232l1.8261-2.8767 2.3126-0.22482c1.2719-0.12365 2.9936-0.31656 3.8259-0.42868l1.5133-0.20385-0.59409 1.5415c-0.32675 0.8478-1.4046 2.8434-2.3953 4.4346l-1.8012 2.8931-8.0068 0.03458 0.74663-1.1465zm9.7786-14.817c0.14688-0.24253 2.5413-3.9335 5.3209-8.2021 5.1478-7.9053 6.607-9.7014 7.8823-9.7014 1.9774 0 3.833 2.1729 3.3834 3.9619-0.11064 0.44033-2.0878 3.6692-4.3936 7.1753l-4.1924 6.3747-3.3869 0.41622c-4.3611 0.53594-4.9514 0.53278-4.6138-0.024749z" fill="#3b311b"/>
  </g>
 </g>
</svg>
