<?xml version="1.0" encoding="UTF-8" standalone="no"?>
<!-- Created with Inkscape (http://www.inkscape.org/) -->

<svg
   width="48"
   height="48"
   viewBox="0 0 12.7 12.7"
   version="1.1"
   id="svg2214"
   inkscape:version="1.1.1 (3bf5ae0d25, 2021-09-20)"
   sodipodi:docname="fusballIcon.svg"
   xmlns:inkscape="http://www.inkscape.org/namespaces/inkscape"
   xmlns:sodipodi="http://sodipodi.sourceforge.net/DTD/sodipodi-0.dtd"
   xmlns="http://www.w3.org/2000/svg"
   xmlns:svg="http://www.w3.org/2000/svg">
  <sodipodi:namedview
     id="namedview2216"
     pagecolor="#ffffff"
     bordercolor="#111111"
     borderopacity="1"
     inkscape:pageshadow="0"
     inkscape:pageopacity="0"
     inkscape:pagecheckerboard="1"
     inkscape:document-units="mm"
     showgrid="false"
     units="px"
     inkscape:zoom="4.0416192"
     inkscape:cx="72.124559"
     inkscape:cy="65.938919"
     inkscape:window-width="1920"
     inkscape:window-height="991"
     inkscape:window-x="-9"
     inkscape:window-y="-9"
     inkscape:window-maximized="1"
     inkscape:current-layer="layer1" />
  <defs
     id="defs2211" />
  <g
     inkscape:label="Ebene 1"
     inkscape:groupmode="layer"
     id="layer1">
    <g
       id="g2413"
       transform="matrix(0.62706276,0,0,0.6317734,-17.009255,-37.174282)">
      <path
         style="fill:#919191;stroke-width:0.352778"
         d="m 36.131371,75.888568 c 0.466817,-0.27134 0.761666,-0.2683 1.040694,0.01073 0.283927,0.283927 0.10758,0.38643 -0.65136,0.378607 -0.912323,-0.0094 -0.960348,-0.05743 -0.389334,-0.389334 z m 6.779654,-1.467236 c 0.132478,-0.347917 0.329738,-0.543709 0.438354,-0.435092 0.108615,0.108615 2.23e-4,0.393274 -0.240871,0.632575 -0.348409,0.345817 -0.388931,0.305295 -0.197483,-0.197483 z m 1.039274,-2.007397 c -0.153426,-0.248248 -0.06451,-0.564774 0.205548,-0.731676 0.642565,-0.397127 0.809262,-0.160984 0.401151,0.56827 -0.251679,0.449726 -0.404333,0.490841 -0.606699,0.163406 z m -7.937874,-1.59001 c -1.178659,-1.216068 -1.178659,-1.216068 -0.537376,-2.638181 0.51161,-1.134549 0.826621,-1.421139 1.557845,-1.417296 1.601042,0.0084 2.506896,0.409559 2.673368,1.183864 0.478915,2.227556 0.399414,2.470263 -1.077659,3.289947 -1.437519,0.797734 -1.437519,0.797734 -2.616178,-0.418334 z m 1.61794,0.471309 c 0.143015,-0.231405 0.09798,-0.312271 -0.10429,-0.187262 -0.195803,0.121013 -0.718415,-0.165744 -1.16136,-0.637237 -0.720268,-0.766691 -0.759311,-0.96842 -0.369548,-1.909391 0.246638,-0.595439 0.765365,-1.116528 1.195047,-1.200491 0.739879,-0.144577 0.738853,-0.149586 -0.04022,-0.196403 -0.589194,-0.03541 -0.954372,0.27682 -1.388475,1.187142 -0.584578,1.225873 -0.581377,1.24316 0.424487,2.293056 1.160582,1.211387 1.111441,1.189252 1.444356,0.650586 z m 1.794799,-2.481083 c -0.112615,-0.281422 -0.196209,-0.197829 -0.213136,0.213137 -0.01532,0.371886 0.06806,0.580246 0.185286,0.463021 0.117225,-0.117226 0.129758,-0.421496 0.02785,-0.676158 z m -9.060431,1.300868 c 0,-0.52589 0.151906,-0.829701 0.352778,-0.705555 0.454941,0.281169 0.454941,1.129941 0,1.411111 -0.200872,0.124145 -0.352778,-0.179666 -0.352778,-0.705556 z m 2.403299,-0.770154 c 0.254661,-0.101907 0.558932,-0.08937 0.676157,0.02785 0.117225,0.117225 -0.09113,0.200604 -0.463021,0.185286 -0.410966,-0.01693 -0.494559,-0.100522 -0.213136,-0.213138 z m -1.90765,-0.90554 c -0.672038,-0.79375 -0.672038,-0.79375 0.121712,-0.121713 0.745929,0.631549 0.954349,0.915463 0.672038,0.915463 -0.06694,0 -0.42413,-0.357188 -0.79375,-0.79375 z m 11.62053,-4.68952 c -0.328489,-0.856028 0.05635,-0.938927 0.758252,-0.163337 0.584471,0.645833 0.588455,0.707718 0.04556,0.707718 -0.327204,0 -0.68892,-0.244971 -0.803814,-0.544381 z m 1.079469,-0.954924 c -0.672038,-0.79375 -0.672038,-0.79375 0.121712,-0.121713 0.745929,0.631549 0.954349,0.915463 0.672038,0.915463 -0.06694,0 -0.42413,-0.357188 -0.79375,-0.79375 z m -9.99125,-0.04041 c 0.08085,-0.07073 0.500606,-0.31253 0.932802,-0.53733 0.660464,-0.34353 0.75292,-0.323016 0.579617,0.128604 -0.113406,0.295531 -0.533166,0.537329 -0.932801,0.537329 -0.399635,0 -0.660463,-0.05787 -0.579618,-0.128603 z"
         id="path2425" />
      <path
         style="fill:#808080;stroke-width:0.352778"
         d="m 36.186009,70.644648 c -1.005864,-1.049896 -1.009065,-1.067183 -0.424487,-2.293056 0.434103,-0.910322 0.799281,-1.222548 1.388475,-1.187142 0.77907,0.04682 0.780096,0.05183 0.04022,0.196403 -0.429682,0.08396 -0.948409,0.605052 -1.195047,1.200491 -0.389763,0.940971 -0.35072,1.1427 0.369548,1.909391 0.442945,0.471493 0.965557,0.75825 1.16136,0.637237 0.20227,-0.125009 0.247305,-0.04414 0.10429,0.187262 -0.332915,0.538666 -0.283774,0.560801 -1.444356,-0.650586 z m 3.5424,-0.328864 c -0.11163,-0.180621 -0.06808,-0.411762 0.09677,-0.513648 0.164854,-0.101886 0.299736,0.0459 0.299736,0.328401 0,0.594843 -0.111244,0.646815 -0.396509,0.185247 z m -0.516381,-1.288496 c 0.01693,-0.410966 0.100521,-0.494559 0.213136,-0.213137 0.101908,0.254662 0.08937,0.558932 -0.02785,0.676158 -0.117226,0.117225 -0.200604,-0.09113 -0.185286,-0.463021 z"
         id="path2423" />
      <path
         style="fill:#6d6d6d;stroke-width:0.352778"
         d="m 35.79927,71.967102 c -0.672037,-0.79375 -0.672037,-0.79375 0.121713,-0.121712 0.745929,0.631549 0.954349,0.915462 0.672037,0.915462 -0.06694,0 -0.424129,-0.357187 -0.79375,-0.79375 z m -0.137748,-1.141243 c -0.65539,-0.67619 -1.123094,-1.283706 -1.039342,-1.350035 0.08375,-0.06633 0.686626,0.486917 1.339721,1.229437 1.484023,1.687221 1.292558,1.764092 -0.300379,0.120598 z m -5.621716,-1.445793 c 0.01693,-0.410966 0.100521,-0.49456 0.213137,-0.213137 0.101907,0.254661 0.08937,0.558932 -0.02785,0.676157 -0.117225,0.117225 -0.200604,-0.09113 -0.185287,-0.46302 z m 9.144371,-2.263658 c -0.317956,-0.205479 -0.361468,-0.34413 -0.109014,-0.347375 0.231084,-0.003 0.518265,0.153347 0.638181,0.347375 0.270688,0.437983 0.148562,0.437983 -0.529167,0 z m -2.888368,-0.593765 c 0.254662,-0.101907 0.558932,-0.08937 0.676158,0.02785 0.117225,0.117225 -0.09114,0.200604 -0.463021,0.185286 -0.410966,-0.01693 -0.494559,-0.100521 -0.213137,-0.213136 z"
         id="path2421" />
      <path
         style="fill:#4c4c4c;stroke-width:0.352778"
         d="m 37.728067,75.318491 c -0.43881,-0.559525 -0.426332,-0.572003 0.133193,-0.133193 0.587639,0.460858 0.774517,0.750554 0.484168,0.750554 -0.07326,0 -0.351068,-0.277812 -0.617361,-0.617361 z m -3.339908,-4.7625 c -0.672037,-0.79375 -0.672037,-0.79375 0.121713,-0.121712 0.745929,0.631549 0.954349,0.915462 0.672037,0.915462 -0.06694,0 -0.424129,-0.357187 -0.79375,-0.79375 z m -3.715647,-1.234722 c -0.43881,-0.559525 -0.426332,-0.572003 0.133193,-0.133193 0.587639,0.460858 0.774517,0.750554 0.484168,0.750554 -0.07326,0 -0.351068,-0.277812 -0.617361,-0.617361 z m -1.31041,-0.440972 c 0,-0.485069 0.08007,-0.683507 0.177936,-0.440972 0.09787,0.242535 0.09787,0.639409 0,0.881944 -0.09786,0.242535 -0.177936,0.0441 -0.177936,-0.440972 z"
         id="path2419" />
      <path
         style="fill:#2f2f2f;stroke-width:0.352778"
         d="m 37.095361,73.613399 c 0.01693,-0.410966 0.100521,-0.49456 0.213137,-0.213137 0.101907,0.254661 0.08937,0.558932 -0.02785,0.676157 -0.117225,0.117225 -0.200604,-0.09113 -0.185286,-0.46302 z m 8.247921,-2.287128 c -0.127894,-0.206937 -0.156875,-0.451909 -0.0644,-0.544382 0.09247,-0.09247 0.262138,0.07684 0.377032,0.376249 0.238543,0.621632 0.03522,0.730976 -0.31263,0.168133 z m -5.229071,-4.837608 c -0.111503,-0.180416 0.172502,-0.680543 0.631122,-1.111394 0.45862,-0.430852 0.925084,-0.635754 1.036588,-0.455338 0.111503,0.180416 -0.172502,0.680544 -0.631122,1.111395 -0.458621,0.430851 -0.925085,0.635753 -1.036588,0.455337 z m 1.010244,-0.783366 c 0.351185,-0.388055 0.559144,-0.705555 0.46213,-0.705555 -0.09701,0 -0.463723,0.3175 -0.814908,0.705555 -0.351185,0.388056 -0.559144,0.705556 -0.46213,0.705556 0.09701,0 0.463722,-0.3175 0.814908,-0.705556 z m -3.792361,-5.172526 c 0.242535,-0.09786 0.639409,-0.09786 0.881944,0 0.242535,0.09787 0.0441,0.177936 -0.440972,0.177936 -0.485069,0 -0.683507,-0.08007 -0.440972,-0.177936 z"
         id="path2417" />
      <path
         style="fill:#040404;stroke-width:0.352778"
         d="m 35.480011,76.934938 c -5.956703,-2.241054 -7.795632,-9.532211 -3.490074,-13.83777 3.315479,-3.315478 9.526157,-3.01268 12.280721,0.59874 1.055376,1.38367 1.969074,3.803791 1.969074,5.215509 0,2.793794 -2.199456,6.186575 -4.890388,7.543693 -1.497895,0.755433 -4.487212,0.999815 -5.869333,0.479828 z m 2.061653,-1.034501 c -0.617407,-0.617406 -0.867443,-0.673283 -1.499387,-0.335077 -1.050069,0.56198 -0.597147,1.076047 0.948059,1.076047 1.292298,0 1.292298,0 0.551328,-0.74097 z m 3.708639,0.0612 c 1.885378,-0.961848 2.250943,-1.513739 1.975439,-2.982301 -0.19223,-1.024675 -0.451107,-1.317839 -1.456803,-1.649749 -1.10593,-0.36499 -1.381109,-0.306083 -2.874036,0.61524 -2.039203,1.258445 -2.282542,2.242623 -0.908972,3.676321 1.153674,1.204176 1.500496,1.240351 3.264372,0.340489 z m -5.782261,-0.620289 c 1.74764,-0.833392 1.727078,-2.235174 -0.05963,-4.064926 -1.80884,-1.85242 -3.012845,-1.832944 -3.980795,0.0644 -0.715342,1.402186 -0.715342,1.402186 0.814302,2.998611 0.841305,0.878034 1.630846,1.596425 1.754537,1.596425 0.123691,0 0.785903,-0.267528 1.471583,-0.594505 z m 9.353409,-2.919219 c 0.931328,-1.825552 0.909426,-1.897779 -0.374201,-1.23399 -0.722494,0.373616 -1.018198,0.741173 -0.881944,1.096246 0.11274,0.293796 0.204982,0.759315 0.204982,1.034488 0,0.830186 0.301265,0.573178 1.051163,-0.896744 z m -4.663157,-3.657193 c -0.18194,-1.003704 -0.359363,-1.854252 -0.394272,-1.890109 -0.03491,-0.03586 -0.886634,-0.174389 -1.892722,-0.307851 -1.82925,-0.242659 -1.82925,-0.242659 -2.62197,1.388998 -0.79272,1.631656 -0.79272,1.631656 0.573519,3.030811 1.366238,1.399155 1.366238,1.399155 3.016241,0.501111 1.650003,-0.898044 1.650003,-0.898044 1.319204,-2.72296 z m -8.928759,1.998346 c 0.17426,-0.694308 0.04624,-1.128734 -0.490923,-1.665896 -0.726657,-0.726656 -0.726657,-0.726656 -0.721839,0.145489 0.0066,1.186627 0.370731,2.459645 0.703639,2.459645 0.150364,0 0.379469,-0.422657 0.509123,-0.939238 z m 13.304261,-0.14866 c 1.436905,-0.733055 1.44033,-0.739684 1.218469,-2.358333 -0.330306,-2.409849 -1.015187,-3.256546 -2.634171,-3.256546 -0.947874,0 -1.567581,0.240669 -2.112056,0.820236 -0.76974,0.81935 -0.785842,1.123458 -0.211839,4.000821 0.12309,0.617025 0.899955,1.147962 2.196393,1.501092 0.05624,0.01532 0.750678,-0.302954 1.543204,-0.70727 z m -9.70945,-2.913113 c 0.843643,-1.720156 0.881503,-1.973749 0.434504,-2.910416 -0.407069,-0.852998 -0.735355,-1.04404 -1.946237,-1.132591 -1.319482,-0.09649 -1.522968,0.0031 -2.162003,1.058333 -1.272476,2.101199 -1.308291,2.713071 -0.22499,3.843794 0.630251,0.65784 1.339198,1.025225 1.978392,1.025225 0.853358,0 1.128651,-0.270135 1.920334,-1.884345 z m 6.012788,-2.057705 c 0.930237,-0.873911 1.089552,-2.605214 0.334726,-3.637501 -0.348718,-0.476901 -1.059947,-0.700669 -2.575432,-0.81029 -2.09367,-0.151442 -2.09367,-0.151442 -2.726078,1.25099 -0.584454,1.296087 -0.589946,1.484547 -0.07242,2.485337 0.445223,0.860966 0.831533,1.11129 1.884923,1.221406 0.728713,0.07618 1.552825,0.165188 1.831362,0.197805 0.278536,0.03262 0.873849,-0.285869 1.322916,-0.707747 z m 2.756765,-2.055172 c -1.227472,-1.281205 -1.5875,-1.327875 -1.5875,-0.205787 0,0.916658 0.388522,1.192434 1.741696,1.236269 0.859751,0.02785 0.859751,0.02785 -0.154196,-1.030482 z m -8.274107,-1.088548 c 0.556326,-1.039504 0.261474,-1.149103 -1.207216,-0.448734 -1.550671,0.739464 -1.638017,1.184504 -0.232477,1.184504 0.699185,0 1.176461,-0.243917 1.439693,-0.73577 z"
         id="path2415" />
    </g>
    <path
       style="opacity:0.410175;fill:#ffffff;stroke:#ffffff;stroke-width:0.841637"
       d="m 27.836041,41.765463 c -0.47593,-0.323357 -0.865626,-0.784757 -0.86599,-1.025334 -3.64e-4,-0.240576 -0.696547,-1.083868 -1.547072,-1.873982 -1.476712,-1.371823 -1.840663,-2.036097 -1.298984,-2.370873 0.136084,-0.08411 0.247425,-0.634427 0.247425,-1.222939 0,-0.924458 0.127538,-1.185245 0.937514,-1.917009 1.294924,-1.169886 2.896655,-2.245578 4.733912,-3.179205 1.829467,-0.929668 2.945915,-0.922423 5.339013,0.03465 1.268358,0.507254 1.563431,0.750035 2.026185,1.667112 0.297898,0.590367 0.616265,1.670738 0.707484,2.400824 0.140661,1.125814 0.08757,1.42695 -0.34956,1.982669 -0.283477,0.360382 -0.586767,1.035594 -0.673978,1.500471 -0.195868,1.044064 -0.715718,1.460203 -3.809062,3.049145 -3.041147,1.562131 -4.242632,1.77267 -5.446887,0.954473 z"
       id="path2874"
       transform="scale(0.26458333)" />
    <path
       style="opacity:0.410175;fill:#ffffff;stroke:#ffffff;stroke-width:0.841637"
       d="m 28.577655,42.139142 c -0.8358,-0.331831 -1.701564,-1.105281 -1.583013,-1.41422 0.07285,-0.18985 -0.498771,-0.895212 -1.34626,-1.661233 -1.465859,-1.324948 -2.025188,-2.258903 -1.534452,-2.562195 0.14162,-0.08752 0.25749,-0.597932 0.25749,-1.134237 0,-0.802102 0.169726,-1.144826 0.956657,-1.931757 1.145335,-1.145335 4.734699,-3.400812 6.033514,-3.791327 1.691932,-0.508714 4.843557,0.578372 5.931293,2.045873 0.570688,0.769934 1.160068,4.138256 0.768251,4.390574 -0.343293,0.221069 -1.07101,1.654942 -1.07101,2.110287 0,0.757087 -5.269554,3.666399 -7.175342,3.961494 -0.476294,0.07375 -1.033002,0.06778 -1.237128,-0.01326 z"
       id="path2913"
       transform="scale(0.26458333)" />
    <path
       style="opacity:0.410175;fill:#ffffff;stroke:#ffffff;stroke-width:0.841637"
       d="m 28.577655,42.142593 c -0.845636,-0.343601 -1.701165,-1.109772 -1.583013,-1.417671 0.07285,-0.18985 -0.498771,-0.895212 -1.34626,-1.661233 -1.465859,-1.324948 -2.025188,-2.258903 -1.534452,-2.562195 0.14162,-0.08752 0.25749,-0.573158 0.25749,-1.079184 0,-0.506025 0.171757,-1.165263 0.381682,-1.464973 0.94576,-1.350261 6.236297,-4.513692 7.54872,-4.513692 0.395506,0 1.448279,0.239372 2.339495,0.531937 1.992358,0.654045 2.927733,1.619261 3.313824,3.419544 0.321352,1.498409 0.353148,2.72901 0.07051,2.72901 -0.247153,0 -1.035529,1.60989 -1.035529,2.114585 0,0.441319 -2.119632,1.830129 -4.56713,2.992441 -1.816958,0.862869 -3.173523,1.184405 -3.84534,0.911431 z"
       id="path2952"
       transform="scale(0.26458333)" />
    <path
       style="opacity:0.410175;fill:#ffffff;stroke:#ffffff;stroke-width:0.841637"
       d="m 35.935209,29.09289 c -1.774619,-0.729774 -2.549892,-1.231272 -3.001206,-1.941378 -0.682285,-1.073519 -1.610039,-6.930933 -1.295982,-8.182235 0.08544,-0.340401 0.529739,-0.850304 0.987343,-1.133119 0.457604,-0.282814 1.137714,-0.955344 1.511357,-1.49451 0.852231,-1.22977 1.848719,-1.575945 4.195349,-1.457446 3.258912,0.164568 4.615714,1.715638 5.46488,6.247344 0.555632,2.96522 0.554162,4.727754 -0.0045,5.345024 -0.446901,0.49382 -5.684623,3.2193 -6.166217,3.208628 -0.145755,-0.0032 -0.906734,-0.269769 -1.691064,-0.592308 z"
       id="path2991"
       transform="scale(0.26458333)" />
    <path
       style="opacity:0.410175;fill:#ffffff;stroke:#ffffff;stroke-width:0.841637"
       d="m 36.159877,29.198645 c -1.591267,-0.621571 -2.741502,-1.431217 -3.245578,-2.284548 -0.443768,-0.751241 -1.367537,-5.581032 -1.367537,-7.149971 0,-0.618123 0.164671,-1.113917 0.462591,-1.392776 0.254425,-0.238147 0.820612,-0.75757 1.258194,-1.154272 0.437582,-0.396702 0.964583,-0.979172 1.171114,-1.294378 0.691859,-1.05591 3.90904,-1.447004 5.710711,-0.694217 1.945892,0.813045 2.840595,2.241766 3.546889,5.663905 0.626757,3.03677 0.619433,4.937072 -0.0215,5.578003 -0.473856,0.473857 -5.738305,3.232626 -6.123808,3.209106 -0.10433,-0.0064 -0.730315,-0.222749 -1.391076,-0.480852 z"
       id="path3030"
       transform="scale(0.26458333)" />
    <path
       style="opacity:0.410175;fill:#ffffff;stroke:#ffffff;stroke-width:0.841637"
       d="m 35.963984,29.104585 c -1.463062,-0.601798 -2.558416,-1.349167 -3.090299,-2.108537 -0.359186,-0.512809 -1.326923,-5.78867 -1.326923,-7.234049 0,-0.616045 0.165013,-1.11211 0.462591,-1.390649 0.254425,-0.238147 0.820612,-0.75757 1.258194,-1.154272 0.437582,-0.396702 0.964583,-0.979172 1.171114,-1.294378 0.724941,-1.106399 4.066168,-1.452062 5.89171,-0.60952 1.834172,0.846525 2.75036,2.38114 3.444433,5.76942 0.558898,2.728395 0.52105,4.7667 -0.100042,5.387791 -0.466853,0.466853 -5.72489,3.227157 -6.123808,3.214807 -0.10433,-0.0032 -0.818466,-0.264506 -1.58697,-0.580613 z"
       id="path3069"
       transform="scale(0.26458333)" />
    <path
       style="opacity:0.410175;fill:#ffffff;stroke:#ffffff;stroke-width:0.841637"
       d="m 39.861991,32.516228 c -0.421967,-1.099629 0.372712,-2.330306 1.504737,-2.330306 0.712157,0 0.730789,0.450559 0.07203,1.741836 -0.522446,1.024079 -1.298469,1.313701 -1.576767,0.58847 z"
       id="path3108"
       transform="scale(0.26458333)" />
    <path
       style="opacity:0.410175;fill:#ffffff;stroke:#ffffff;stroke-width:0.841637"
       d=""
       id="path3147"
       transform="scale(0.26458333)" />
    <path
       style="opacity:0.410175;fill:#ffffff;stroke:#ffffff;stroke-width:0.841637"
       d="m 22.413287,29.87664 c -1.413618,-1.478166 -1.259747,-1.723112 0.215554,-0.343141 0.674591,0.631001 1.336326,1.147274 1.470524,1.147274 0.257368,0 1.014332,-0.964314 1.014332,-1.292182 0,-0.105804 -0.321983,-0.192372 -0.715517,-0.192372 -0.751469,0 -2.980917,-1.76911 -3.535621,-2.805583 -1.060224,-1.981048 1.468214,-6.101738 3.744,-6.101738 0.278926,0 0.507138,-0.111341 0.507138,-0.247425 0,-0.136085 -0.548165,-0.247426 -1.218144,-0.247426 -0.928165,0 -1.387809,0.142764 -1.930873,0.599721 -0.694122,0.584066 -2.1119,3.16458 -2.425786,4.415202 -0.175874,0.700738 0.298759,1.78731 1.095811,2.508633 0.2861,0.258917 0.520183,0.588493 0.520183,0.732391 0,0.143898 -0.565405,-0.290889 -1.256455,-0.966193 -1.158304,-1.131912 -1.247047,-1.300854 -1.136023,-2.162654 0.17408,-1.351257 2.053731,-5.009286 2.843194,-5.533198 0.482753,-0.320371 1.166584,-0.442518 2.518391,-0.44984 3.634339,-0.01969 5.373462,0.975401 5.882521,3.365846 0.505385,2.373195 0.625839,3.675732 0.339917,3.675732 -0.440933,0 -0.826738,0.948471 -0.571399,1.404738 0.288421,0.515379 -0.393796,1.110035 -2.889654,2.518774 -2.412386,1.361625 -3.148711,1.357252 -4.472093,-0.02656 z m 6.906645,-5.113845 c 0,-0.397122 -0.06734,-0.89752 -0.149639,-1.111994 -0.253335,-0.660179 -0.592638,-0.168413 -0.592638,0.858934 0,0.701806 0.10402,0.9751 0.371139,0.9751 0.245114,0 0.371138,-0.245177 0.371138,-0.72204 z"
       id="path3186"
       transform="scale(0.26458333)" />
    <path
       style="opacity:0.410175;fill:#ffffff;stroke:#ffffff;stroke-width:0.841637"
       d="m 23.627088,30.674266 c -0.299843,-0.189566 -0.271838,-0.234052 0.149277,-0.23713 0.482945,-0.0035 1.337332,-0.693303 1.337332,-1.079669 0,-0.09401 -0.277863,-0.12054 -0.617473,-0.05896 -0.34496,0.06255 -0.773952,-0.04451 -0.972029,-0.242587 -0.195006,-0.195006 -0.41655,-0.354556 -0.492321,-0.354556 -0.07577,0 -0.633952,-0.510527 -1.240402,-1.134505 -1.154784,-1.188161 -1.407667,-1.94875 -1.062429,-3.195443 0.113054,-0.408252 0.249098,-0.939056 0.302319,-1.179565 0.05322,-0.240508 0.241964,-0.586742 0.419428,-0.769407 0.177464,-0.182665 0.684166,-0.734083 1.126005,-1.225372 0.463779,-0.515686 0.949974,-0.836986 1.150244,-0.760135 0.190796,0.07321 0.4174,0.01905 0.503565,-0.120369 0.08617,-0.139418 0.320111,-0.190767 0.519878,-0.114109 0.199768,0.07666 0.363215,0.03147 0.363215,-0.100428 0,-0.133365 -0.610528,-0.212673 -1.375479,-0.178676 -1.247254,0.05543 -1.453524,0.148855 -2.212667,1.002155 -0.460454,0.517564 -0.786867,1.022445 -0.725364,1.121959 0.0615,0.09952 -0.06417,0.356924 -0.279262,0.572021 -0.215098,0.215097 -0.324896,0.391086 -0.243996,0.391086 0.0809,0 -0.03124,0.272166 -0.2492,0.604814 -0.432584,0.660207 -0.665341,2.364293 -0.322933,2.364293 0.11713,0 0.185128,0.08351 0.151107,0.185569 -0.03402,0.102063 0.188662,0.436087 0.494852,0.742277 0.306189,0.306189 0.553923,0.695884 0.550521,0.865989 -0.0034,0.170105 -0.448769,-0.159608 -0.989703,-0.732696 -1.260061,-1.334961 -1.265398,-1.994966 -0.03733,-4.615597 1.253385,-2.674655 2.075621,-3.373459 3.969325,-3.373459 2.021417,0 4.229052,0.629652 5.044603,1.4388 0.491484,0.487625 0.783653,1.157825 1.047262,2.402289 0.450458,2.126555 0.454906,2.835945 0.02136,3.407609 -0.185404,0.244472 -0.286854,0.636628 -0.225444,0.871459 0.14797,0.56584 -0.650299,1.277577 -2.761965,2.462567 -1.981281,1.111823 -2.817071,1.371833 -3.342301,1.039772 z m 5.598329,-6.034938 c -0.03421,-0.990801 -0.400336,-1.518311 -0.400336,-0.576807 0,0.351761 -0.06758,0.815684 -0.150185,1.03094 -0.09512,0.24787 -0.01637,0.391374 0.214767,0.391374 0.25615,0 0.356247,-0.252069 0.335754,-0.845507 z"
       id="path3225"
       transform="scale(0.26458333)" />
    <path
       style="opacity:0.410175;fill:#ffffff;stroke:#ffffff;stroke-width:0.841637"
       d="m 24.37142,30.451021 c 0,-0.126364 0.174966,-0.404718 0.388812,-0.618564 0.297502,-0.297502 0.312028,-0.397663 0.06186,-0.426499 -0.559447,-0.06448 -0.80773,-0.127706 -1.235711,-0.314656 -0.601857,-0.262902 -2.678915,-2.272764 -2.678915,-2.592248 0,-0.149568 -0.08873,-0.271942 -0.197171,-0.271942 -0.167908,0 -0.206536,-1.862935 -0.04617,-2.22683 0.02998,-0.06804 0.04133,-0.207219 0.02522,-0.309282 -0.01611,-0.102063 0.08861,-0.185569 0.232727,-0.185569 0.144116,0 0.198763,-0.102365 0.121439,-0.227478 -0.07732,-0.125113 0.0354,-0.403467 0.250496,-0.618564 0.215098,-0.215098 0.336206,-0.391086 0.26913,-0.391086 -0.06708,0 0.329645,-0.44268 0.881602,-0.983733 0.551956,-0.541054 1.092227,-0.928933 1.200601,-0.861954 0.108374,0.06698 0.269778,0.0041 0.358676,-0.139747 0.0889,-0.143839 0.374945,-0.193823 0.63566,-0.111075 0.260716,0.08275 0.474029,0.04262 0.474029,-0.08917 0,-0.13179 -0.556587,-0.222799 -1.236859,-0.202242 -0.680272,0.02056 -1.23698,0.127453 -1.237128,0.237547 -1.48e-4,0.110095 -0.102652,0.136896 -0.227786,0.05956 -0.265374,-0.16401 -1.784036,1.591199 -1.614334,1.865783 0.06293,0.101825 -0.06157,0.361125 -0.276665,0.576222 -0.215098,0.215097 -0.324896,0.391086 -0.243996,0.391086 0.0809,0 -0.01706,0.250518 -0.217679,0.556707 -0.200623,0.306189 -0.363015,0.612378 -0.360871,0.680421 0.0021,0.06804 -0.07375,0.326071 -0.168663,0.573399 -0.199179,0.519052 0.255706,1.488715 1.094706,2.333548 0.929888,0.936351 0.391731,0.960214 -0.639714,0.02837 -1.388063,-1.254032 -1.381145,-2.121742 0.04021,-5.043503 1.434671,-2.949136 1.851353,-3.215748 4.707509,-3.012074 3.513993,0.250583 4.630025,1.060892 5.206043,3.779912 0.423812,2.000555 0.472984,3.319756 0.123741,3.319756 -0.136084,0 -0.247426,0.324127 -0.247426,0.720282 0,0.85837 -0.730841,1.53731 -3.052311,2.83555 -1.589103,0.888677 -2.391052,1.112747 -2.391052,0.668077 z m 4.815794,-5.878806 c -0.03187,-1.245489 -0.497093,-1.319382 -0.497093,-0.07896 0,0.545367 0.117102,0.991576 0.260225,0.991576 0.143124,0 0.249715,-0.410679 0.236868,-0.91262 z"
       id="path3264"
       transform="scale(0.26458333)" />
    <path
       style="opacity:0.410175;fill:#ffffff;stroke:#ffffff;stroke-width:0.841637"
       d="m 24.123995,30.812454 c 0,-0.082 0.179817,-0.423528 0.399595,-0.75895 0.253786,-0.387328 0.298928,-0.621145 0.123712,-0.640787 -0.151735,-0.01701 -0.387223,-0.05876 -0.523307,-0.09278 -0.136084,-0.03402 -0.362189,-0.07577 -0.502455,-0.09279 -0.140267,-0.01701 -0.919657,-0.693494 -1.731979,-1.503298 -1.288956,-1.28496 -1.476642,-1.592023 -1.474533,-2.4124 0.0047,-1.808455 1.698424,-4.413438 3.240567,-4.983914 L 24.2222,20.117934 23.576373,19.994476 c -0.91258,-0.17445 -1.89614,0.682372 -2.792624,2.432779 -0.408252,0.797123 -0.853618,1.531115 -0.989702,1.631094 -0.144892,0.106451 -0.150019,0.183351 -0.01237,0.18557 0.12928,0.0021 0.112447,0.126395 -0.0374,0.276248 -0.38999,0.389989 0.02424,1.647797 0.814208,2.472347 0.357756,0.373417 0.575702,0.799909 0.484325,0.947761 -0.102152,0.165285 -0.513335,-0.08903 -1.067597,-0.660315 -1.357177,-1.398848 -1.348698,-2.265849 0.05028,-5.141626 1.434253,-2.948276 1.837587,-3.204752 4.753697,-3.022823 2.255269,0.140702 3.932656,0.780042 4.521242,1.723284 0.724301,1.16073 1.321979,5.388317 0.761778,5.388317 -0.136084,0 -0.247426,0.324127 -0.247426,0.720282 0,0.499466 -0.231757,0.915293 -0.75597,1.35639 -1.334357,1.122787 -4.934818,2.953122 -4.934819,2.50867 z m 4.87608,-6.623718 c -0.05918,-0.307776 -0.109851,-0.114226 -0.112598,0.43011 -0.0027,0.544336 0.04568,0.796153 0.107605,0.559592 0.06193,-0.23656 0.06418,-0.681926 0.005,-0.989702 z"
       id="path3303"
       transform="scale(0.26458333)" />
    <path
       style="opacity:0.410175;fill:#ffffff;stroke:#ffffff;stroke-width:0.841637"
       d="m 26.350825,17.555209 c -2.905921,-0.345259 -3.863757,-0.688794 -4.795258,-1.719854 -1.07087,-1.185325 -1.964802,-3.516093 -1.746847,-4.554591 0.247919,-1.18127 1.950626,-4.6698693 2.528372,-5.1802665 0.954385,-0.8431316 7.28618,-0.4605211 9.64479,0.5828045 1.367448,0.604887 2.280476,2.3846535 2.284145,4.452483 0.0037,2.066148 -0.304278,2.765168 -1.918363,4.354608 -0.814478,0.802043 -1.527432,1.611558 -1.584341,1.798923 -0.134202,0.44184 -1.990262,0.553684 -4.412498,0.265893 z"
       id="path3342"
       transform="scale(0.26458333)" />
    <path
       style="opacity:0.410175;fill:#ffffff;stroke:#ffffff;stroke-width:0.841637"
       d="m 25.945016,17.436091 c -3.530978,-0.45444 -4.166372,-0.839746 -5.380486,-3.262751 -0.886975,-1.770136 -0.835068,-2.886189 0.251915,-5.4164366 1.210338,-2.8173903 1.562813,-3.0661149 4.345081,-3.0661149 2.483617,0 5.303772,0.377922 6.471576,0.86724 1.606047,0.6729449 2.635342,2.5546242 2.635342,4.8177345 0,1.832647 -0.43031,2.657728 -2.407059,4.615327 -2.080973,2.060813 -1.753322,1.980788 -5.916369,1.445001 z"
       id="path3381"
       transform="scale(0.26458333)" />
    <path
       style="opacity:0.410175;fill:#ffffff;stroke:#ffffff;stroke-width:0.841637"
       d="M 25.945016,17.436091 C 22.392237,16.978845 21.782858,16.604124 20.53079,14.106758 19.628838,12.30773 19.671122,11.422953 20.782705,8.8354423 22.138778,5.6788131 22.27417,5.6025155 26.227112,5.7673329 c 1.769093,0.073762 3.826155,0.2995934 4.571249,0.5018475 2.263386,0.6143909 3.465327,2.386456 3.468703,5.1140296 0.0023,1.892068 -0.346554,2.568704 -2.344976,4.547765 -2.149469,2.128646 -1.805424,2.04201 -5.977072,1.505116 z"
       id="path3420"
       transform="scale(0.26458333)" />
    <path
       style="opacity:0.410175;fill:#ffffff;stroke:#ffffff;stroke-width:0.841637"
       d="m 11.788499,25.093597 c -0.427933,-0.179933 -0.77806,-0.48594 -0.77806,-0.680017 0,-0.194076 -0.751556,-1.005065 -1.6701231,-1.802196 -2.0785825,-1.80379 -2.032903,-1.73668 -2.0374723,-2.993338 -0.00496,-1.36476 2.396134,-6.170719 3.6196524,-7.244983 0.78721,-0.691179 0.983108,-0.743641 2.756377,-0.738158 1.049916,0.0032 2.354305,0.107616 2.898641,0.231932 1.264183,0.288716 2.457957,1.625047 3.006647,3.365691 0.381068,1.208888 0.379819,1.377819 -0.01921,2.597777 -0.597256,1.826002 -2.686793,5.91381 -3.431985,6.714066 -0.570114,0.612242 -0.686624,0.643352 -1.40039,0.373936 -0.644034,-0.243096 -0.898392,-0.225079 -1.472279,0.104287 -0.596064,0.342094 -0.803289,0.352091 -1.4718,0.071 z"
       id="path3459"
       transform="scale(0.26458333)" />
    <path
       style="opacity:0.410175;fill:#ffffff;stroke:#ffffff;stroke-width:0.841637"
       d="m 11.814572,25.092804 c -0.442273,-0.193416 -0.804133,-0.508156 -0.804133,-0.699423 0,-0.191267 -0.777362,-0.998174 -1.7274702,-1.793126 C 7.2551184,20.90356 6.9980377,20.214868 7.6364815,18.189492 8.1360178,16.60478 10.285648,12.950955 11.186705,12.155013 c 0.625565,-0.552588 0.807058,-0.580563 3.061996,-0.47198 2.805409,0.13509 3.761232,0.562146 4.61705,2.062875 1.328431,2.329483 1.248936,3.149907 -0.698614,7.210025 -1.489245,3.104674 -2.527414,4.392878 -3.235038,4.01417 -0.533273,-0.2854 -1.942256,-0.07722 -1.942256,0.286966 0,0.292692 -0.191609,0.265911 -1.175271,-0.164265 z"
       id="path3498"
       transform="scale(0.26458333)" />
    <path
       style="opacity:0.410175;fill:#ffffff;stroke:#ffffff;stroke-width:0.841637"
       d="M 11.838188,25.125886 C 11.408903,24.939118 10.991836,24.57888 10.911371,24.325359 10.830907,24.071837 10.042707,23.254768 9.159817,22.509649 7.3776331,21.005568 7.0598731,20.251782 7.4913755,18.551796 c 0.362504,-1.428154 2.7523325,-5.6211 3.6199075,-6.351116 0.702908,-0.591459 0.870575,-0.620029 3.110672,-0.530054 2.779605,0.111643 3.778584,0.55808 4.643796,2.075282 1.346972,2.361995 1.258483,3.170449 -0.811434,7.413452 -1.478785,3.031276 -2.576678,4.355224 -3.189702,3.84646 -0.403996,-0.335288 -1.874772,-0.138181 -1.874772,0.251249 0,0.300732 -0.215269,0.276211 -1.151655,-0.131183 z"
       id="path3537"
       transform="scale(0.26458333)" />
    <path
       style="opacity:0.410175;fill:#ffffff;stroke:#ffffff;stroke-width:0.841637"
       d="M 13.933059,38.658198 C 12.69452,37.46859 11.14056,35.84928 10.479815,35.059732 8.9876685,33.276712 8.9393167,32.578995 10.142348,30.190093 c 2.138254,-4.246004 4.620915,-4.829992 7.314633,-1.720594 0.699937,0.807948 1.38475,1.468997 1.521805,1.468997 0.137055,0 0.486147,0.306189 0.775759,0.68042 0.289613,0.374232 1.020531,1.213327 1.624263,1.864657 0.952185,1.027255 1.112111,1.358074 1.206446,2.495641 0.182638,2.202372 -0.786166,3.415789 -3.793619,4.751471 -2.788194,1.238304 -2.352637,1.334449 -4.858576,-1.072487 z"
       id="path3576"
       transform="scale(0.26458333)" />
    <path
       style="opacity:0.410175;fill:#ffffff;stroke:#ffffff;stroke-width:0.841637"
       d="m 13.063936,37.719195 c -2.993,-3.034926 -3.7830609,-4.083659 -3.7845516,-5.023644 -0.00137,-0.861507 1.4090846,-3.66282 2.3920116,-4.750803 1.827556,-2.022886 3.73765,-1.852998 5.797857,0.515673 0.707075,0.812941 1.40807,1.484399 1.557766,1.492129 0.275991,0.01425 2.387477,2.441952 3.178125,3.654076 0.531431,0.814725 0.562369,2.541845 0.06284,3.507834 -0.204303,0.395078 -0.844517,1.036142 -1.422697,1.424586 -1.256869,0.844414 -3.906074,2.03875 -4.52223,2.03875 -0.242004,0 -1.708607,-1.28637 -3.259118,-2.858601 z"
       id="path3615"
       transform="scale(0.26458333)" />
    <path
       style="opacity:0.410175;fill:#ffffff;stroke:#ffffff;stroke-width:0.841637"
       d="m 13.090749,37.75698 c -4.2274702,-4.258948 -4.3943612,-4.685153 -2.933378,-7.491223 2.223896,-4.271377 4.646689,-4.869575 7.311882,-1.805336 0.707075,0.812941 1.40807,1.484399 1.557766,1.492129 0.275991,0.01425 2.387477,2.441952 3.178125,3.654076 0.584694,0.896381 0.55926,2.680666 -0.05251,3.684017 -0.266728,0.437453 -0.906526,1.055294 -1.421772,1.37298 -1.275821,0.786634 -3.869971,1.914173 -4.403972,1.914173 -0.239895,0 -1.696158,-1.269367 -3.236139,-2.820816 z"
       id="path3654"
       transform="scale(0.26458333)" />
    <path
       style="opacity:0.410175;fill:#ffffff;stroke:#ffffff;stroke-width:0.841637"
       d="M 7.8106002,28.23771 C 7.5174147,27.689888 7.4729566,26.650545 7.7055625,25.782136 c 0.2132651,-0.796202 0.8656794,-0.596988 1.3735284,0.419404 0.35653,0.713547 0.3723169,0.953858 0.1056053,1.60754 -0.3736711,0.915827 -1.0075364,1.113553 -1.374096,0.42863 z"
       id="path3693"
       transform="scale(0.26458333)" />
  </g>
</svg>
