<?xml version="1.0" encoding="UTF-8" standalone="no"?>
<!-- Created with Inkscape (http://www.inkscape.org/) -->

<svg
   width="48"
   height="48"
   viewBox="0 0 12.7 12.7"
   version="1.1"
   id="svg1226"
   inkscape:version="1.1.1 (3bf5ae0d25, 2021-09-20)"
   sodipodi:docname="weinIcon.svg"
   xmlns:inkscape="http://www.inkscape.org/namespaces/inkscape"
   xmlns:sodipodi="http://sodipodi.sourceforge.net/DTD/sodipodi-0.dtd"
   xmlns="http://www.w3.org/2000/svg"
   xmlns:svg="http://www.w3.org/2000/svg">
  <sodipodi:namedview
     id="namedview1228"
     pagecolor="#ffffff"
     bordercolor="#111111"
     borderopacity="1"
     inkscape:pageshadow="0"
     inkscape:pageopacity="0"
     inkscape:pagecheckerboard="1"
     inkscape:document-units="mm"
     showgrid="false"
     units="px"
     inkscape:zoom="11.745006"
     inkscape:cx="28.054478"
     inkscape:cy="26.947624"
     inkscape:window-width="1920"
     inkscape:window-height="1009"
     inkscape:window-x="1912"
     inkscape:window-y="-8"
     inkscape:window-maximized="1"
     inkscape:current-layer="layer1" />
  <defs
     id="defs1223" />
  <g
     inkscape:label="Ebene 1"
     inkscape:groupmode="layer"
     id="layer1">
    <g
       id="g1335"
       transform="matrix(0.05585971,0,0,0.04551798,0.52474672,-0.40713103)">
      <path
         style="fill:#e9ce9f;stroke-width:0.352778"
         d="m 61.731391,268.44828 c 0,-0.48507 0.08007,-0.68351 0.177936,-0.44097 0.09787,0.24253 0.09787,0.63941 0,0.88194 -0.09786,0.24254 -0.177936,0.0441 -0.177936,-0.44097 z M 148.1341,268.2425 c 0.0169,-0.41097 0.10052,-0.49456 0.21313,-0.21314 0.10191,0.25466 0.0894,0.55893 -0.0278,0.67616 -0.11723,0.11722 -0.20061,-0.0911 -0.18529,-0.46302 z m -86.729343,-8.61366 c 0,-0.6791 0.0726,-0.95691 0.161333,-0.61736 0.08873,0.33954 0.08873,0.89517 0,1.23472 -0.08873,0.33955 -0.161333,0.0617 -0.161333,-0.61736 z m 87.136113,0 c 0,-0.6791 0.0726,-0.95691 0.16133,-0.61736 0.0887,0.33954 0.0887,0.89517 0,1.23472 -0.0887,0.33955 -0.16133,0.0617 -0.16133,-0.61736 z m 0.35277,-9.525 c 0,-0.6791 0.0726,-0.95691 0.16134,-0.61737 0.0887,0.33955 0.0887,0.89518 0,1.23473 -0.0887,0.33955 -0.16134,0.0617 -0.16134,-0.61736 z m -87.841661,-0.35278 c 0,-0.6791 0.0726,-0.95691 0.161333,-0.61736 0.08873,0.33955 0.08873,0.89517 0,1.23472 -0.08873,0.33955 -0.161333,0.0617 -0.161333,-0.61736 z M 60.70632,238.28578 c 0.0039,-0.77611 0.07616,-1.05207 0.160541,-0.61325 0.08438,0.43883 0.08118,1.07383 -0.0071,1.41111 -0.0883,0.33729 -0.157337,-0.0217 -0.153422,-0.79786 z m 88.5401,0.17639 c 0,-0.6791 0.0726,-0.95691 0.16134,-0.61736 0.0887,0.33955 0.0887,0.89517 0,1.23472 -0.0887,0.33955 -0.16134,0.0617 -0.16134,-0.61736 z m 0.39978,-26.63473 c 0.001,-1.94027 0.0602,-2.68902 0.13165,-1.66387 0.0715,1.02516 0.0707,2.61266 -0.002,3.52778 -0.0723,0.91513 -0.1308,0.0764 -0.12988,-1.86391 z M 60.686129,194.54133 c 0.0072,-0.58208 0.08625,-0.7775 0.175698,-0.43426 0.08945,0.34325 0.08356,0.8195 -0.01307,1.05834 -0.09663,0.23884 -0.169815,-0.042 -0.162626,-0.62408 z m 88.506301,-3.2044 c 0.0169,-0.41096 0.10052,-0.49455 0.21313,-0.21313 0.10191,0.25466 0.0894,0.55893 -0.0278,0.67616 -0.11723,0.11722 -0.2006,-0.0911 -0.18529,-0.46303 z m -28.575,-99.836113 c 0.0169,-0.410968 0.10052,-0.494559 0.21313,-0.213137 0.10191,0.254659 0.0894,0.55893 -0.0278,0.676158 -0.11723,0.117225 -0.2006,-0.09114 -0.18529,-0.463021 z M 89.613907,86.944103 c 0.0072,-0.582083 0.08625,-0.777501 0.175698,-0.434259 0.08944,0.343242 0.08356,0.819492 -0.01307,1.058334 -0.09664,0.238841 -0.169818,-0.04199 -0.162628,-0.624075 z m 30.728603,-1.234722 c 0,-1.067153 0.0661,-1.503716 0.14697,-0.970139 0.0808,0.533576 0.0808,1.406701 0,1.940278 -0.0808,0.533576 -0.14697,0.09701 -0.14697,-0.970139 z m 0.42346,-33.513891 c 0.35118,-0.388056 0.71789,-0.705556 0.81491,-0.705556 0.097,0 -0.11095,0.3175 -0.46214,0.705556 -0.35118,0.388055 -0.71789,0.705555 -0.81491,0.705555 -0.097,0 0.11095,-0.3175 0.46214,-0.705555 z M 85.692428,45.286926 c 0.01693,-0.410969 0.100521,-0.49456 0.213137,-0.213138 0.101907,0.25466 0.08937,0.55893 -0.02785,0.676159 -0.117225,0.117224 -0.200604,-0.09114 -0.185287,-0.463021 z M 124.62802,32.9691 c -1.3e-4,-6.402917 0.0475,-9.072063 0.10596,-5.931434 0.0584,3.140629 0.0585,8.379379 2.4e-4,11.641667 -0.0583,3.262289 -0.10606,0.692684 -0.1062,-5.710233 z M 85.692428,20.592479 c 0.01693,-0.410966 0.100521,-0.49456 0.213137,-0.213137 0.101907,0.254661 0.08937,0.558932 -0.02785,0.676157 -0.117225,0.117225 -0.200604,-0.09113 -0.185287,-0.46302 z m 35.557702,-6.408797 c -0.43881,-0.559526 -0.42633,-0.572003 0.1332,-0.133193 0.58764,0.460858 0.77451,0.750554 0.48416,0.750554 -0.0733,0 -0.35106,-0.277813 -0.61736,-0.617361 z M 89.545133,13.213543 c 0.455699,-0.48507 0.907919,-0.881945 1.004933,-0.881945 0.09701,0 -0.196456,0.396875 -0.652155,0.881945 -0.455699,0.485069 -0.907919,0.881944 -1.004933,0.881944 -0.09701,0 0.196456,-0.396875 0.652155,-0.881944 z m 29.941107,-0.79375 c -0.43881,-0.559525 -0.42633,-0.572003 0.1332,-0.133193 0.58764,0.460858 0.77452,0.750554 0.48417,0.750554 -0.0733,0 -0.35107,-0.277813 -0.61737,-0.617361 z M 97.240099,9.2683884 c 0.254659,-0.1019071 0.55893,-0.089374 0.676158,0.027851 0.117225,0.1172251 -0.09114,0.2006037 -0.463021,0.1852857 -0.410968,-0.016928 -0.494559,-0.1005206 -0.213137,-0.2131367 z m 15.147391,0.00735 c 0.24254,-0.097865 0.63941,-0.097865 0.88195,0 0.24253,0.097865 0.0441,0.1779361 -0.44097,0.1779361 -0.48507,0 -0.68351,-0.080071 -0.44098,-0.1779361 z"
         id="path1349" />
      <path
         style="fill:#a8a39a;stroke-width:0.352778"
         d="m 67.301142,284.0587 -1.215731,-1.32292 1.322917,1.21573 c 0.727604,0.66866 1.322916,1.26397 1.322916,1.32292 0,0.26939 -0.298526,0.0156 -1.430102,-1.21573 z m 75.160658,0.0882 c 0.65821,-0.67909 1.27611,-1.23472 1.37313,-1.23472 0.097,0 -0.36215,0.55563 -1.02035,1.23472 -0.65821,0.6791 -1.27612,1.23473 -1.37313,1.23473 -0.097,0 0.36214,-0.55563 1.02035,-1.23473 z M 62.056318,272.82861 c 0.01693,-0.41097 0.10052,-0.49456 0.213136,-0.21314 0.101907,0.25466 0.08937,0.55893 -0.02785,0.67616 -0.117225,0.11722 -0.200603,-0.0911 -0.185286,-0.46302 z m 85.725002,0 c 0.0169,-0.41097 0.10052,-0.49456 0.21313,-0.21314 0.10191,0.25466 0.0894,0.55893 -0.0278,0.67616 -0.11723,0.11722 -0.20061,-0.0911 -0.18529,-0.46302 z m -86.004732,-6.67338 c 0.0027,-0.97014 0.07116,-1.32515 0.152248,-0.7889 0.08109,0.53624 0.07892,1.32999 -0.0048,1.76389 -0.08374,0.43389 -0.15008,-0.005 -0.147432,-0.97499 z m 86.430552,0 c 0.003,-0.97014 0.0712,-1.32515 0.15225,-0.7889 0.0811,0.53624 0.0789,1.32999 -0.005,1.76389 -0.0837,0.43389 -0.15008,-0.005 -0.14743,-0.97499 z m -86.828527,-8.29028 c 0,-0.48507 0.08007,-0.68351 0.177936,-0.44097 0.09787,0.24253 0.09787,0.6394 0,0.88194 -0.09786,0.24253 -0.177936,0.0441 -0.177936,-0.44097 z m 87.136107,0 c 0,-0.48507 0.0801,-0.68351 0.17794,-0.44097 0.0979,0.24253 0.0979,0.6394 0,0.88194 -0.0979,0.24253 -0.17794,0.0441 -0.17794,-0.44097 z m 0.37892,-9.87778 c 0,-0.6791 0.0726,-0.95691 0.16134,-0.61736 0.0887,0.33955 0.0887,0.89517 0,1.23472 -0.0887,0.33955 -0.16134,0.0617 -0.16134,-0.61736 z m -87.841661,-0.35278 c 0,-0.6791 0.0726,-0.95691 0.161333,-0.61736 0.08873,0.33955 0.08873,0.89517 0,1.23472 -0.08873,0.33955 -0.161333,0.0617 -0.161333,-0.61736 z M 149.24642,236.3455 c 0,-0.6791 0.0726,-0.95691 0.16134,-0.61736 0.0887,0.33955 0.0887,0.89517 0,1.23472 -0.0887,0.33955 -0.16134,0.0617 -0.16134,-0.61736 z m -88.573363,0 c 0,-0.48507 0.08007,-0.68351 0.177936,-0.44097 0.09786,0.24253 0.09786,0.63941 0,0.88194 -0.09786,0.24254 -0.177936,0.0441 -0.177936,-0.44097 z m -0.02785,-40.42245 c 0.01693,-0.41097 0.100521,-0.49456 0.213137,-0.21314 0.101907,0.25466 0.08937,0.55893 -0.02785,0.67616 -0.117225,0.11722 -0.200603,-0.0911 -0.185286,-0.46302 z M 149.26548,193.483 c 0.003,-0.97014 0.0712,-1.32514 0.15224,-0.7889 0.0811,0.53624 0.0789,1.32999 -0.005,1.76389 -0.0837,0.43389 -0.15008,-0.005 -0.14744,-0.97499 z m -88.213501,-4.7625 c 0,-0.6791 0.0726,-0.95691 0.161333,-0.61736 0.08873,0.33955 0.08873,0.89517 0,1.23472 -0.08873,0.33955 -0.161333,0.0617 -0.161333,-0.61736 z m 87.828591,-1.94028 c 0.007,-0.58208 0.0863,-0.7775 0.1757,-0.43426 0.0894,0.34324 0.0836,0.81949 -0.0131,1.05834 -0.0966,0.23884 -0.16981,-0.042 -0.16262,-0.62408 z m -87.501957,-2.99861 c 0,-0.48507 0.08007,-0.68351 0.177936,-0.44097 0.09787,0.24253 0.09787,0.63941 0,0.88194 -0.09786,0.24254 -0.177936,0.0441 -0.177936,-0.44097 z m 87.136107,-1.05833 c 0,-0.48507 0.0801,-0.68351 0.17794,-0.44098 0.0979,0.24254 0.0979,0.63941 0,0.88195 -0.0979,0.24253 -0.17794,0.0441 -0.17794,-0.44097 z m -86.81118,-2.32246 c 0.01693,-0.41097 0.10052,-0.49456 0.213136,-0.21313 0.101907,0.25466 0.08937,0.55893 -0.02785,0.67615 -0.117226,0.11723 -0.200604,-0.0911 -0.185286,-0.46302 z m 86.43056,-0.70555 c 0.0169,-0.41097 0.10052,-0.49456 0.21313,-0.21314 0.10191,0.25466 0.0894,0.55893 -0.0278,0.67616 -0.11723,0.11722 -0.20061,-0.0911 -0.18529,-0.46302 z M 89.572984,88.325817 c 0.01693,-0.410968 0.100521,-0.494559 0.213137,-0.213137 0.101907,0.254659 0.08937,0.55893 -0.02785,0.676158 -0.117225,0.117225 -0.200604,-0.09114 -0.185287,-0.463021 z"
         id="path1347" />
      <path
         style="fill:#e39e23;stroke-width:0.352778"
         d="m 61.659977,259.89342 c -0.0086,-1.4067 -0.08309,-3.98639 -0.165443,-5.73264 -0.08235,-1.74625 -0.231038,-5.75469 -0.330413,-8.90764 l -0.180683,-5.73264 h 44.099522 44.09952 l -0.18948,4.67431 c -0.35643,8.7927 -0.5112,13.49418 -0.52259,15.875 l -0.0114,2.38125 H 105.06736 61.675689 Z m -1.039555,-52.56389 c 0.0017,-5.28726 0.103174,-10.44664 0.225528,-11.46528 l 0.222461,-1.85208 h 43.992179 43.99219 l 0.23229,6.93589 c 0.12775,3.81474 0.23229,8.97412 0.23229,11.46528 v 4.52938 h -44.45 -44.450004 z M 83.195133,119.7242 c 0,-0.11254 0.486361,-1.58098 1.080802,-3.26319 2.397115,-6.78362 4.503911,-16.39738 5.259022,-23.998033 0.199625,-2.009345 0.362954,-11.731411 0.362954,-21.604589 V 52.907152 L 88.736096,51.385089 C 88.097097,50.547957 87.184284,48.998769 86.707623,47.942453 85.850392,46.042766 85.839773,45.892 85.731241,34.079718 85.663123,26.666065 85.761432,21.485146 85.990492,20.417077 87.158206,14.972214 91.456414,10.683 96.882636,9.5477244 99.223447,9.057979 110.67278,9.0345636 113.22129,9.5143096 c 4.33039,0.8151804 8.06556,3.7170004 9.98358,7.7561784 l 1.08887,2.293055 V 32.9691 46.374656 l -0.91761,1.956375 c -0.50469,1.076008 -1.4175,2.525713 -2.02847,3.221574 l -1.11086,1.265195 0.004,16.533987 c 0.004,17.203671 0.2356,21.912532 1.45557,29.567863 0.84601,5.30871 2.97747,13.92038 4.4796,18.09876 l 1.04629,2.91042 h -22.01338 c -12.107355,0 -22.013377,-0.0921 -22.013377,-0.20463 z"
         id="path1345" />
      <path
         style="fill:#b68120;stroke-width:0.352778"
         d="m 61.404757,255.74828 c 0,-0.6791 0.0726,-0.95691 0.161333,-0.61736 0.08873,0.33955 0.08873,0.89517 0,1.23472 -0.08873,0.33955 -0.161333,0.0617 -0.161333,-0.61736 z m 87.143233,-0.17639 c 0.004,-0.77611 0.0762,-1.05207 0.16054,-0.61325 0.0844,0.43883 0.0812,1.07383 -0.007,1.41112 -0.0883,0.33728 -0.15734,-0.0218 -0.15342,-0.79787 z m 0.37313,-10.58333 c 0.002,-1.16417 0.0678,-1.59789 0.14635,-0.96382 0.0785,0.63406 0.0769,1.58656 -0.004,2.11666 -0.0805,0.53011 -0.14473,0.0113 -0.14275,-1.15284 z m -87.850087,-0.35278 c 0.0026,-0.97014 0.07116,-1.32514 0.152247,-0.7889 0.08109,0.53624 0.07892,1.32999 -0.0048,1.76389 -0.08374,0.43389 -0.150081,-0.005 -0.147432,-0.97499 z m -0.344362,-11.28889 c 0.002,-1.16417 0.06784,-1.59789 0.146354,-0.96382 0.07851,0.63406 0.07689,1.58656 -0.0036,2.11667 -0.08049,0.5301 -0.144735,0.0113 -0.142754,-1.15285 z m 88.550819,-0.17639 c 0,-1.26118 0.064,-1.77712 0.14229,-1.14653 0.0782,0.63059 0.0782,1.66247 0,2.29306 -0.0783,0.63059 -0.14229,0.11465 -0.14229,-1.14653 z m 0.0218,-34.04306 c 7e-4,-2.32833 0.0578,-3.23492 0.12687,-2.01464 0.0691,1.22027 0.0685,3.12527 -0.001,4.23333 -0.0698,1.10805 -0.1263,0.10965 -0.12561,-2.21869 z m -66.36871,-5.37981 c 12.175243,-0.0514 32.09837,-0.0514 44.27361,0 12.17524,0.0515 2.21368,0.0935 -22.1368,0.0935 -24.350491,0 -34.312053,-0.0421 -22.13681,-0.0935 z m 5.936878,-97.307923 c 0.01693,-0.410969 0.100521,-0.49456 0.213137,-0.213138 0.101907,0.25466 0.08937,0.55893 -0.02785,0.676159 -0.117225,0.117224 -0.200604,-0.09114 -0.185287,-0.463021 z m 0.352778,-2.822223 c 0.01693,-0.410968 0.100521,-0.494559 0.213137,-0.213137 0.101907,0.254659 0.08937,0.55893 -0.02785,0.676158 -0.117225,0.117225 -0.200604,-0.09114 -0.185287,-0.463021 z m 0.380629,-4.027547 c 0,-0.48507 0.08007,-0.683507 0.177936,-0.440973 0.09786,0.242535 0.09786,0.63941 0,0.881945 -0.09787,0.242535 -0.177936,0.0441 -0.177936,-0.440972 z"
         id="path1343" />
      <path
         style="fill:#ce4226;stroke-width:0.352778"
         d="M 60.850351,233.43508 C 60.72339,230.08811 60.619028,225.0081 60.618434,222.1462 l -0.0011,-5.20348 h 44.450006 44.45 v 4.88234 c 0,2.68528 -0.10443,7.76528 -0.23207,11.28889 l -0.23205,6.40655 H 105.06721 61.081188 Z"
         id="path1341" />
      <path
         style="fill:#45371c;stroke-width:0.352778"
         d="m 75.720654,287.96285 c 0.254662,-0.1019 0.558932,-0.0894 0.676158,0.0278 0.117225,0.11722 -0.09113,0.2006 -0.463021,0.18528 -0.410966,-0.0169 -0.494559,-0.10052 -0.213137,-0.21313 z m 58.208336,0 c 0.25466,-0.1019 0.55893,-0.0894 0.67616,0.0278 0.11722,0.11722 -0.0911,0.2006 -0.46302,0.18528 -0.41097,-0.0169 -0.49456,-0.10052 -0.21314,-0.21313 z M 62.09724,271.44689 c 0.0072,-0.58208 0.08625,-0.7775 0.175698,-0.43426 0.08944,0.34325 0.08356,0.8195 -0.01307,1.05834 -0.09663,0.23884 -0.169816,-0.042 -0.162628,-0.62408 z m 85.725,0 c 0.007,-0.58208 0.0863,-0.7775 0.1757,-0.43426 0.0894,0.34325 0.0836,0.8195 -0.0131,1.05834 -0.0966,0.23884 -0.16982,-0.042 -0.16263,-0.62408 z m -86.098509,-8.02569 -0.04804,-0.97014 h 43.391669 43.39166 l -0.048,0.97014 c -0.0412,0.83179 -0.0698,0.85695 -0.20092,0.17639 l -0.15289,-0.79375 H 105.06736 62.077539 l -0.152883,0.79375 c -0.131082,0.68056 -0.159734,0.6554 -0.200925,-0.17639 z m -0.671752,-72.23126 c 0,-0.67909 0.0726,-0.95691 0.161333,-0.61736 0.08873,0.33955 0.08873,0.89518 0,1.23472 -0.08873,0.33955 -0.161333,0.0617 -0.161333,-0.61736 z M 148.8675,188.7205 c 0,-0.48507 0.0801,-0.68351 0.17794,-0.44097 0.0979,0.24253 0.0979,0.63941 0,0.88194 -0.0979,0.24254 -0.17794,0.0441 -0.17794,-0.44097 z m -87.516738,-3.38079 c 0.01693,-0.41097 0.100521,-0.49456 0.213137,-0.21314 0.101907,0.25466 0.08937,0.55894 -0.02785,0.67616 -0.117225,0.11723 -0.200604,-0.0911 -0.185286,-0.46302 z m 87.136108,-1.41111 c 0.0169,-0.41097 0.10052,-0.49456 0.21314,-0.21314 0.10191,0.25466 0.0894,0.55894 -0.0278,0.67616 -0.11722,0.11723 -0.2006,-0.0911 -0.18528,-0.46302 z m -86.78333,-2.46944 c 0.01693,-0.41097 0.10052,-0.49456 0.213136,-0.21314 0.101907,0.25466 0.08937,0.55893 -0.02785,0.67616 -0.117226,0.11722 -0.200604,-0.0911 -0.185286,-0.46302 z m 86.43056,-0.70556 c 0.0169,-0.41097 0.10052,-0.49456 0.21313,-0.21314 0.10191,0.25466 0.0894,0.55894 -0.0278,0.67616 -0.11723,0.11723 -0.20061,-0.0911 -0.18529,-0.46302 z"
         id="path1339" />
      <path
         style="fill:#3a2f1a;stroke-width:0.352778"
         d="m 74.808279,287.81151 c -5.388023,-0.89731 -10.226832,-5.84208 -11.899457,-12.16002 -0.311584,-1.17693 -0.648088,-4.43526 -0.771238,-7.46779 l -0.218475,-5.37986 h 43.148251 43.14824 l -0.21847,5.37986 c -0.24335,5.99234 -0.77107,8.50721 -2.45538,11.70113 -2.27014,4.3048 -6.1597,7.23923 -10.537,7.94951 -2.76917,0.44933 -57.485936,0.42859 -60.196471,-0.0228 z m -13.61889,-96.88615 c 1.03081,-17.09629 2.223555,-21.32314 15.305494,-54.23959 l 6.589589,-16.58055 22.015748,-0.0877 22.01575,-0.0877 2.52272,6.43773 c 1.3875,3.54075 4.51616,11.48165 6.95258,17.64644 9.52457,24.09966 11.57674,31.64425 12.42435,45.67671 l 0.23973,3.96875 h -44.1154 -44.115408 z"
         id="path1337" />
    </g>
  </g>
</svg>
