<svg width="48" height="48" inkscape:version="1.1.1 (3bf5ae0d25, 2021-09-20)" sodipodi:docname="‬ssballIcon.svg" version="1.1" viewBox="0 0 12.7 12.7" xmlns="http://www.w3.org/2000/svg" xmlns:inkscape="http://www.inkscape.org/namespaces/inkscape" xmlns:sodipodi="http://sodipodi.sourceforge.net/DTD/sodipodi-0.dtd">
 <sodipodi:namedview bordercolor="#111111" borderopacity="1" inkscape:current-layer="layer1" inkscape:cx="294.27651" inkscape:cy="220.09504" inkscape:document-units="mm" inkscape:pagecheckerboard="1" inkscape:pageopacity="0" inkscape:pageshadow="0" inkscape:window-height="991" inkscape:window-maximized="1" inkscape:window-width="1920" inkscape:window-x="-9" inkscape:window-y="-9" inkscape:zoom="1.4289282" pagecolor="#ffffff" showgrid="false" units="px"/>
 <g inkscape:groupmode="layer" inkscape:label="Ebene 1">
  <g transform="matrix(.62706 0 0 .63177 -17.009 -37.174)" stroke-width=".35278">
   <path d="m36.131 75.889c0.46682-0.27134 0.76167-0.2683 1.0407 0.01073 0.28393 0.28393 0.10758 0.38643-0.65136 0.37861-0.91232-0.0094-0.96035-0.05743-0.38933-0.38933zm6.7797-1.4672c0.13248-0.34792 0.32974-0.54371 0.43835-0.43509 0.10862 0.10862 2.23e-4 0.39327-0.24087 0.63258-0.34841 0.34582-0.38893 0.3053-0.19748-0.19748zm1.0393-2.0074c-0.15343-0.24825-0.06451-0.56477 0.20555-0.73168 0.64256-0.39713 0.80926-0.16098 0.40115 0.56827-0.25168 0.44973-0.40433 0.49084-0.6067 0.16341zm-7.9379-1.59c-1.1787-1.2161-1.1787-1.2161-0.53738-2.6382 0.51161-1.1345 0.82662-1.4211 1.5578-1.4173 1.601 0.0084 2.5069 0.40956 2.6734 1.1839 0.47892 2.2276 0.39941 2.4703-1.0777 3.2899-1.4375 0.79773-1.4375 0.79773-2.6162-0.41833zm1.6179 0.47131c0.14302-0.2314 0.09798-0.31227-0.10429-0.18726-0.1958 0.12101-0.71842-0.16574-1.1614-0.63724-0.72027-0.76669-0.75931-0.96842-0.36955-1.9094 0.24664-0.59544 0.76536-1.1165 1.195-1.2005 0.73988-0.14458 0.73885-0.14959-0.04022-0.1964-0.58919-0.03541-0.95437 0.27682-1.3885 1.1871-0.58458 1.2259-0.58138 1.2432 0.42449 2.2931 1.1606 1.2114 1.1114 1.1893 1.4444 0.65059zm1.7948-2.4811c-0.11262-0.28142-0.19621-0.19783-0.21314 0.21314-0.01532 0.37189 0.06806 0.58025 0.18529 0.46302 0.11722-0.11723 0.12976-0.4215 0.02785-0.67616zm-9.0604 1.3009c0-0.52589 0.15191-0.8297 0.35278-0.70556 0.45494 0.28117 0.45494 1.1299 0 1.4111-0.20087 0.12414-0.35278-0.17967-0.35278-0.70556zm2.4033-0.77015c0.25466-0.10191 0.55893-0.08937 0.67616 0.02785 0.11722 0.11722-0.09113 0.2006-0.46302 0.18529-0.41097-0.01693-0.49456-0.10052-0.21314-0.21314zm-1.9076-0.90554c-0.67204-0.79375-0.67204-0.79375 0.12171-0.12171 0.74593 0.63155 0.95435 0.91546 0.67204 0.91546-0.06694 0-0.42413-0.35719-0.79375-0.79375zm11.621-4.6895c-0.32849-0.85603 0.05635-0.93893 0.75825-0.16334 0.58447 0.64583 0.58846 0.70772 0.04556 0.70772-0.3272 0-0.68892-0.24497-0.80381-0.54438zm1.0795-0.95492c-0.67204-0.79375-0.67204-0.79375 0.12171-0.12171 0.74593 0.63155 0.95435 0.91546 0.67204 0.91546-0.06694 0-0.42413-0.35719-0.79375-0.79375zm-9.9912-0.04041c0.08085-0.07073 0.50061-0.31253 0.9328-0.53733 0.66046-0.34353 0.75292-0.32302 0.57962 0.1286-0.11341 0.29553-0.53317 0.53733-0.9328 0.53733s-0.66046-0.05787-0.57962-0.1286z" fill="#919191"/>
   <path d="m36.186 70.645c-1.0059-1.0499-1.0091-1.0672-0.42449-2.2931 0.4341-0.91032 0.79928-1.2225 1.3885-1.1871 0.77907 0.04682 0.7801 0.05183 0.04022 0.1964-0.42968 0.08396-0.94841 0.60505-1.195 1.2005-0.38976 0.94097-0.35072 1.1427 0.36955 1.9094 0.44294 0.47149 0.96556 0.75825 1.1614 0.63724 0.20227-0.12501 0.2473-0.04414 0.10429 0.18726-0.33292 0.53867-0.28377 0.5608-1.4444-0.65059zm3.5424-0.32886c-0.11163-0.18062-0.06808-0.41176 0.09677-0.51365 0.16485-0.10189 0.29974 0.0459 0.29974 0.3284 0 0.59484-0.11124 0.64682-0.39651 0.18525zm-0.51638-1.2885c0.01693-0.41097 0.10052-0.49456 0.21314-0.21314 0.10191 0.25466 0.08937 0.55893-0.02785 0.67616-0.11723 0.11722-0.2006-0.09113-0.18529-0.46302z" fill="#808080"/>
   <path d="m35.799 71.967c-0.67204-0.79375-0.67204-0.79375 0.12171-0.12171 0.74593 0.63155 0.95435 0.91546 0.67204 0.91546-0.06694 0-0.42413-0.35719-0.79375-0.79375zm-0.13775-1.1412c-0.65539-0.67619-1.1231-1.2837-1.0393-1.35 0.08375-0.06633 0.68663 0.48692 1.3397 1.2294 1.484 1.6872 1.2926 1.7641-0.30038 0.1206zm-5.6217-1.4458c0.01693-0.41097 0.10052-0.49456 0.21314-0.21314 0.10191 0.25466 0.08937 0.55893-0.02785 0.67616-0.11722 0.11722-0.2006-0.09113-0.18529-0.46302zm9.1444-2.2637c-0.31796-0.20548-0.36147-0.34413-0.10901-0.34738 0.23108-3e-3 0.51826 0.15335 0.63818 0.34738 0.27069 0.43798 0.14856 0.43798-0.52917 0zm-2.8884-0.59376c0.25466-0.10191 0.55893-0.08937 0.67616 0.02785 0.11722 0.11722-0.09114 0.2006-0.46302 0.18529-0.41097-0.01693-0.49456-0.10052-0.21314-0.21314z" fill="#6d6d6d"/>
   <path d="m37.728 75.318c-0.43881-0.55952-0.42633-0.572 0.13319-0.13319 0.58764 0.46086 0.77452 0.75055 0.48417 0.75055-0.07326 0-0.35107-0.27781-0.61736-0.61736zm-3.3399-4.7625c-0.67204-0.79375-0.67204-0.79375 0.12171-0.12171 0.74593 0.63155 0.95435 0.91546 0.67204 0.91546-0.06694 0-0.42413-0.35719-0.79375-0.79375zm-3.7156-1.2347c-0.43881-0.55952-0.42633-0.572 0.13319-0.13319 0.58764 0.46086 0.77452 0.75055 0.48417 0.75055-0.07326 0-0.35107-0.27781-0.61736-0.61736zm-1.3104-0.44097c0-0.48507 0.08007-0.68351 0.17794-0.44097 0.09787 0.24254 0.09787 0.63941 0 0.88194-0.09786 0.24254-0.17794 0.0441-0.17794-0.44097z" fill="#4c4c4c"/>
   <path d="m37.095 73.613c0.01693-0.41097 0.10052-0.49456 0.21314-0.21314 0.10191 0.25466 0.08937 0.55893-0.02785 0.67616-0.11722 0.11722-0.2006-0.09113-0.18529-0.46302zm8.2479-2.2871c-0.12789-0.20694-0.15688-0.45191-0.0644-0.54438 0.09247-0.09247 0.26214 0.07684 0.37703 0.37625 0.23854 0.62163 0.03522 0.73098-0.31263 0.16813zm-5.2291-4.8376c-0.1115-0.18042 0.1725-0.68054 0.63112-1.1114 0.45862-0.43085 0.92508-0.63575 1.0366-0.45534 0.1115 0.18042-0.1725 0.68054-0.63112 1.1114-0.45862 0.43085-0.92508 0.63575-1.0366 0.45534zm1.0102-0.78337c0.35118-0.38806 0.55914-0.70556 0.46213-0.70556-0.09701 0-0.46372 0.3175-0.81491 0.70556-0.35118 0.38806-0.55914 0.70556-0.46213 0.70556 0.09701 0 0.46372-0.3175 0.81491-0.70556zm-3.7924-5.1725c0.24254-0.09786 0.63941-0.09786 0.88194 0 0.24254 0.09787 0.0441 0.17794-0.44097 0.17794-0.48507 0-0.68351-0.08007-0.44097-0.17794z" fill="#2f2f2f"/>
   <path d="m35.48 76.935c-5.9567-2.2411-7.7956-9.5322-3.4901-13.838 3.3155-3.3155 9.5262-3.0127 12.281 0.59874 1.0554 1.3837 1.9691 3.8038 1.9691 5.2155 0 2.7938-2.1995 6.1866-4.8904 7.5437-1.4979 0.75543-4.4872 0.99982-5.8693 0.47983zm2.0617-1.0345c-0.61741-0.61741-0.86744-0.67328-1.4994-0.33508-1.0501 0.56198-0.59715 1.076 0.94806 1.076 1.2923 0 1.2923 0 0.55133-0.74097zm3.7086 0.0612c1.8854-0.96185 2.2509-1.5137 1.9754-2.9823-0.19223-1.0247-0.45111-1.3178-1.4568-1.6497-1.1059-0.36499-1.3811-0.30608-2.874 0.61524-2.0392 1.2584-2.2825 2.2426-0.90897 3.6763 1.1537 1.2042 1.5005 1.2404 3.2644 0.34049zm-5.7823-0.62029c1.7476-0.83339 1.7271-2.2352-0.05963-4.0649-1.8088-1.8524-3.0128-1.8329-3.9808 0.0644-0.71534 1.4022-0.71534 1.4022 0.8143 2.9986 0.8413 0.87803 1.6308 1.5964 1.7545 1.5964s0.7859-0.26753 1.4716-0.5945zm9.3534-2.9192c0.93133-1.8256 0.90943-1.8978-0.3742-1.234-0.72249 0.37362-1.0182 0.74117-0.88194 1.0962 0.11274 0.2938 0.20498 0.75932 0.20498 1.0345 0 0.83019 0.30126 0.57318 1.0512-0.89674zm-4.6632-3.6572c-0.18194-1.0037-0.35936-1.8543-0.39427-1.8901-0.03491-0.03586-0.88663-0.17439-1.8927-0.30785-1.8292-0.24266-1.8292-0.24266-2.622 1.389-0.79272 1.6317-0.79272 1.6317 0.57352 3.0308 1.3662 1.3992 1.3662 1.3992 3.0162 0.50111s1.65-0.89804 1.3192-2.723zm-8.9288 1.9983c0.17426-0.69431 0.04624-1.1287-0.49092-1.6659-0.72666-0.72666-0.72666-0.72666-0.72184 0.14549 0.0066 1.1866 0.37073 2.4596 0.70364 2.4596 0.15036 0 0.37947-0.42266 0.50912-0.93924zm13.304-0.14866c1.4369-0.73306 1.4403-0.73968 1.2185-2.3583-0.33031-2.4098-1.0152-3.2565-2.6342-3.2565-0.94787 0-1.5676 0.24067-2.1121 0.82024-0.76974 0.81935-0.78584 1.1235-0.21184 4.0008 0.12309 0.61702 0.89996 1.148 2.1964 1.5011 0.05624 0.01532 0.75068-0.30295 1.5432-0.70727zm-9.7094-2.9131c0.84364-1.7202 0.8815-1.9737 0.4345-2.9104-0.40707-0.853-0.73536-1.044-1.9462-1.1326-1.3195-0.09649-1.523 0.0031-2.162 1.0583-1.2725 2.1012-1.3083 2.7131-0.22499 3.8438 0.63025 0.65784 1.3392 1.0252 1.9784 1.0252 0.85336 0 1.1287-0.27014 1.9203-1.8843zm6.0128-2.0577c0.93024-0.87391 1.0896-2.6052 0.33473-3.6375-0.34872-0.4769-1.0599-0.70067-2.5754-0.81029-2.0937-0.15144-2.0937-0.15144-2.7261 1.251-0.58445 1.2961-0.58995 1.4845-0.07242 2.4853 0.44522 0.86097 0.83153 1.1113 1.8849 1.2214 0.72871 0.07618 1.5528 0.16519 1.8314 0.1978 0.27854 0.03262 0.87385-0.28587 1.3229-0.70775zm2.7568-2.0552c-1.2275-1.2812-1.5875-1.3279-1.5875-0.20579 0 0.91666 0.38852 1.1924 1.7417 1.2363 0.85975 0.02785 0.85975 0.02785-0.1542-1.0305zm-8.2741-1.0885c0.55633-1.0395 0.26147-1.1491-1.2072-0.44873-1.5507 0.73946-1.638 1.1845-0.23248 1.1845 0.69918 0 1.1765-0.24392 1.4397-0.73577z" fill="#040404"/>
  </g>
 </g>
</svg>
